<svg width="610" height="197" viewBox="0 0 610 197" fill="none" xmlns="http://www.w3.org/2000/svg">
<g opacity="0.06" filter="url(#filter0_f_14_2)">
<rect x="54.19" y="54.0283" width="502.169" height="88.8996" rx="4.69826" fill="#0D1025"/>
</g>
<rect x="37.4737" y="29.2224" width="535.601" height="93.9651" rx="4.69826" fill="white"/>
<path d="M306.308 87.3795C306.245 87.3795 306.195 87.3607 306.158 87.3231C306.12 87.2793 306.101 87.226 306.101 87.1634V81.0181C306.101 80.9554 306.12 80.9053 306.158 80.8677C306.195 80.8239 306.245 80.802 306.308 80.802H306.778C306.841 80.802 306.891 80.8239 306.928 80.8677C306.966 80.9053 306.985 80.9554 306.985 81.0181V86.5902H310.123C310.192 86.5902 310.245 86.6121 310.283 86.656C310.327 86.6936 310.349 86.7437 310.349 86.8063V87.1634C310.349 87.226 310.327 87.2793 310.283 87.3231C310.239 87.3607 310.186 87.3795 310.123 87.3795H306.308ZM313.128 87.4735C312.439 87.4735 311.907 87.2793 311.531 86.8909C311.161 86.5025 310.964 85.9857 310.939 85.3405L310.929 84.9364L310.939 84.5324C310.964 83.8871 311.164 83.3703 311.54 82.9819C311.922 82.5936 312.452 82.3994 313.128 82.3994C313.805 82.3994 314.331 82.5936 314.707 82.9819C315.089 83.3703 315.292 83.8871 315.318 84.5324C315.33 84.6702 315.336 84.8049 315.336 84.9364C315.336 85.068 315.33 85.2027 315.318 85.3405C315.292 85.9857 315.092 86.5025 314.716 86.8909C314.347 87.2793 313.817 87.4735 313.128 87.4735ZM313.128 86.7687C313.529 86.7687 313.845 86.6435 314.077 86.3929C314.315 86.136 314.444 85.7696 314.462 85.2935C314.469 85.2308 314.472 85.1118 314.472 84.9364C314.472 84.761 314.469 84.642 314.462 84.5794C314.444 84.1033 314.315 83.7399 314.077 83.4894C313.845 83.2325 313.529 83.1041 313.128 83.1041C312.727 83.1041 312.408 83.2325 312.17 83.4894C311.938 83.7399 311.813 84.1033 311.794 84.5794L311.784 84.9364L311.794 85.2935C311.813 85.7696 311.938 86.136 312.17 86.3929C312.408 86.6435 312.727 86.7687 313.128 86.7687ZM318.477 87.4735C317.807 87.4735 317.284 87.2856 316.908 86.9097C316.532 86.5276 316.335 85.9951 316.316 85.3123L316.307 84.9364L316.316 84.5606C316.335 83.8777 316.532 83.3484 316.908 82.9726C317.284 82.5904 317.807 82.3994 318.477 82.3994C318.928 82.3994 319.307 82.4808 319.614 82.6437C319.927 82.8003 320.159 82.9976 320.31 83.2357C320.466 83.4737 320.551 83.7117 320.563 83.9498C320.57 84.0062 320.548 84.0563 320.497 84.1001C320.454 84.144 320.404 84.1659 320.347 84.1659H319.934C319.871 84.1659 319.824 84.1534 319.793 84.1283C319.761 84.097 319.73 84.0438 319.699 83.9686C319.586 83.6616 319.429 83.4455 319.229 83.3202C319.035 83.1887 318.787 83.1229 318.487 83.1229C318.092 83.1229 317.779 83.2451 317.547 83.4894C317.315 83.7337 317.19 84.1064 317.171 84.6075L317.162 84.9364L317.171 85.2653C317.19 85.7664 317.315 86.1392 317.547 86.3835C317.779 86.6278 318.092 86.75 318.487 86.75C318.794 86.75 319.044 86.6873 319.238 86.562C319.433 86.4305 319.586 86.2112 319.699 85.9043C319.73 85.8291 319.761 85.779 319.793 85.7539C319.824 85.7226 319.871 85.7069 319.934 85.7069H320.347C320.404 85.7069 320.454 85.7289 320.497 85.7727C320.548 85.8166 320.57 85.8667 320.563 85.9231C320.551 86.1548 320.466 86.3898 320.31 86.6278C320.159 86.8658 319.927 87.0663 319.614 87.2292C319.307 87.392 318.928 87.4735 318.477 87.4735ZM323.042 87.4735C322.735 87.4735 322.45 87.4108 322.187 87.2856C321.93 87.1603 321.723 86.9911 321.567 86.7781C321.417 86.5589 321.341 86.3177 321.341 86.0546C321.341 85.6412 321.51 85.3029 321.849 85.0398C322.187 84.7767 322.647 84.6013 323.23 84.5136L324.64 84.3163V84.0438C324.64 83.3985 324.267 83.0759 323.521 83.0759C323.233 83.0759 323.001 83.1354 322.826 83.2544C322.651 83.3672 322.522 83.5019 322.441 83.6585C322.416 83.7211 322.387 83.765 322.356 83.79C322.331 83.8088 322.294 83.8182 322.243 83.8182H321.877C321.821 83.8182 321.77 83.7994 321.727 83.7619C321.689 83.718 321.67 83.6679 321.67 83.6115C321.67 83.4674 321.736 83.3014 321.868 83.1135C322.005 82.9193 322.215 82.7533 322.497 82.6155C322.779 82.4714 323.124 82.3994 323.531 82.3994C324.232 82.3994 324.733 82.5622 325.034 82.888C325.341 83.2137 325.495 83.6209 325.495 84.1095V87.1634C325.495 87.226 325.473 87.2793 325.429 87.3231C325.391 87.3607 325.341 87.3795 325.278 87.3795H324.865C324.802 87.3795 324.752 87.3607 324.715 87.3231C324.677 87.2793 324.658 87.226 324.658 87.1634V86.75C324.52 86.9567 324.32 87.1289 324.057 87.2668C323.794 87.4046 323.456 87.4735 323.042 87.4735ZM323.23 86.7875C323.643 86.7875 323.982 86.6529 324.245 86.3835C324.508 86.1141 324.64 85.7226 324.64 85.2089V84.9458L323.54 85.1056C323.089 85.1682 322.748 85.2747 322.516 85.425C322.284 85.5754 322.168 85.7633 322.168 85.9888C322.168 86.2457 322.272 86.443 322.478 86.5808C322.691 86.7186 322.942 86.7875 323.23 86.7875ZM328.689 87.3795C327.718 87.3795 327.232 86.8314 327.232 85.7351V83.2169H326.49C326.427 83.2169 326.377 83.1981 326.34 83.1605C326.302 83.1229 326.283 83.0728 326.283 83.0101V82.7094C326.283 82.6468 326.302 82.5967 326.34 82.5591C326.377 82.5153 326.427 82.4933 326.49 82.4933H327.232V80.9241C327.232 80.8615 327.251 80.8114 327.289 80.7738C327.326 80.7299 327.376 80.708 327.439 80.708H327.852C327.915 80.708 327.965 80.7299 328.003 80.7738C328.047 80.8114 328.069 80.8615 328.069 80.9241V82.4933H329.234C329.296 82.4933 329.346 82.5153 329.384 82.5591C329.428 82.5967 329.45 82.6468 329.45 82.7094V83.0101C329.45 83.0728 329.428 83.1229 329.384 83.1605C329.346 83.1981 329.296 83.2169 329.234 83.2169H328.069V85.6694C328.069 85.9888 328.119 86.23 328.219 86.3929C328.325 86.5558 328.504 86.6372 328.754 86.6372H329.328C329.39 86.6372 329.44 86.6591 329.478 86.703C329.516 86.7406 329.534 86.7907 329.534 86.8533V87.1634C329.534 87.226 329.516 87.2793 329.478 87.3231C329.44 87.3607 329.39 87.3795 329.328 87.3795H328.689ZM330.593 81.5725C330.531 81.5725 330.477 81.5537 330.434 81.5161C330.396 81.4722 330.377 81.419 330.377 81.3564V80.8677C330.377 80.8051 330.396 80.7518 330.434 80.708C330.477 80.6641 330.531 80.6422 330.593 80.6422H331.148C331.21 80.6422 331.264 80.6641 331.307 80.708C331.351 80.7518 331.373 80.8051 331.373 80.8677V81.3564C331.373 81.419 331.351 81.4722 331.307 81.5161C331.264 81.5537 331.21 81.5725 331.148 81.5725H330.593ZM330.668 87.3795C330.606 87.3795 330.553 87.3607 330.509 87.3231C330.471 87.2793 330.452 87.226 330.452 87.1634V82.7094C330.452 82.6468 330.471 82.5967 330.509 82.5591C330.553 82.5153 330.606 82.4933 330.668 82.4933H331.082C331.145 82.4933 331.195 82.5153 331.232 82.5591C331.276 82.5967 331.298 82.6468 331.298 82.7094V87.1634C331.298 87.226 331.276 87.2793 331.232 87.3231C331.195 87.3607 331.145 87.3795 331.082 87.3795H330.668ZM334.692 87.4735C334.003 87.4735 333.471 87.2793 333.095 86.8909C332.725 86.5025 332.528 85.9857 332.503 85.3405L332.494 84.9364L332.503 84.5324C332.528 83.8871 332.729 83.3703 333.104 82.9819C333.487 82.5936 334.016 82.3994 334.692 82.3994C335.369 82.3994 335.895 82.5936 336.271 82.9819C336.653 83.3703 336.857 83.8871 336.882 84.5324C336.894 84.6702 336.901 84.8049 336.901 84.9364C336.901 85.068 336.894 85.2027 336.882 85.3405C336.857 85.9857 336.656 86.5025 336.28 86.8909C335.911 87.2793 335.381 87.4735 334.692 87.4735ZM334.692 86.7687C335.093 86.7687 335.41 86.6435 335.641 86.3929C335.879 86.136 336.008 85.7696 336.027 85.2935C336.033 85.2308 336.036 85.1118 336.036 84.9364C336.036 84.761 336.033 84.642 336.027 84.5794C336.008 84.1033 335.879 83.7399 335.641 83.4894C335.41 83.2325 335.093 83.1041 334.692 83.1041C334.291 83.1041 333.972 83.2325 333.734 83.4894C333.502 83.7399 333.377 84.1033 333.358 84.5794L333.349 84.9364L333.358 85.2935C333.377 85.7696 333.502 86.136 333.734 86.3929C333.972 86.6435 334.291 86.7687 334.692 86.7687ZM338.303 87.3795C338.241 87.3795 338.187 87.3607 338.143 87.3231C338.106 87.2793 338.087 87.226 338.087 87.1634V82.7094C338.087 82.6468 338.106 82.5967 338.143 82.5591C338.187 82.5153 338.241 82.4933 338.303 82.4933H338.707C338.776 82.4933 338.829 82.5121 338.867 82.5497C338.905 82.5873 338.923 82.6405 338.923 82.7094V83.1229C339.111 82.8911 339.327 82.7126 339.572 82.5873C339.822 82.462 340.132 82.3994 340.502 82.3994C341.103 82.3994 341.57 82.5936 341.902 82.9819C342.234 83.3641 342.4 83.8715 342.4 84.5042V87.1634C342.4 87.226 342.378 87.2793 342.334 87.3231C342.297 87.3607 342.247 87.3795 342.184 87.3795H341.752C341.689 87.3795 341.636 87.3607 341.592 87.3231C341.554 87.2793 341.536 87.226 341.536 87.1634V84.5606C341.536 84.1095 341.426 83.7587 341.207 83.5082C340.987 83.2576 340.674 83.1323 340.267 83.1323C339.866 83.1323 339.547 83.2607 339.309 83.5175C339.071 83.7681 338.952 84.1158 338.952 84.5606V87.1634C338.952 87.226 338.93 87.2793 338.886 87.3231C338.848 87.3607 338.798 87.3795 338.735 87.3795H338.303ZM345.431 87.4735C344.998 87.4735 344.632 87.4046 344.331 87.2668C344.037 87.1227 343.817 86.9598 343.673 86.7781C343.529 86.5965 343.457 86.4461 343.457 86.3271C343.457 86.2645 343.479 86.2175 343.523 86.1862C343.567 86.1486 343.614 86.1298 343.664 86.1298H344.059C344.096 86.1298 344.124 86.136 344.143 86.1486C344.168 86.1611 344.2 86.1893 344.237 86.2331C344.381 86.4085 344.541 86.5464 344.716 86.6466C344.898 86.7468 345.139 86.7969 345.44 86.7969C345.778 86.7969 346.048 86.7343 346.248 86.609C346.455 86.4837 346.558 86.302 346.558 86.064C346.558 85.9074 346.514 85.7821 346.427 85.6881C346.339 85.5942 346.192 85.5096 345.985 85.4344C345.784 85.3593 345.484 85.2778 345.083 85.1901C344.538 85.0711 344.153 84.8988 343.927 84.6733C343.702 84.4478 343.589 84.1565 343.589 83.7994C343.589 83.5677 343.658 83.3453 343.796 83.1323C343.933 82.913 344.137 82.7376 344.406 82.6061C344.682 82.4683 345.008 82.3994 345.384 82.3994C345.778 82.3994 346.113 82.4651 346.389 82.5967C346.671 82.7282 346.881 82.8817 347.019 83.0571C347.163 83.2325 347.235 83.3797 347.235 83.4988C347.235 83.5551 347.213 83.6021 347.169 83.6397C347.131 83.6773 347.084 83.6961 347.028 83.6961H346.671C346.583 83.6961 346.521 83.6616 346.483 83.5927C346.376 83.4737 346.286 83.3829 346.21 83.3202C346.142 83.2513 346.038 83.1949 345.9 83.1511C345.763 83.101 345.59 83.0759 345.384 83.0759C345.077 83.0759 344.842 83.1417 344.679 83.2732C344.516 83.3985 344.435 83.5677 344.435 83.7807C344.435 83.9122 344.469 84.025 344.538 84.1189C344.607 84.2066 344.738 84.2912 344.933 84.3726C345.127 84.4478 345.415 84.5261 345.797 84.6075C346.392 84.7328 346.812 84.9114 347.056 85.1431C347.307 85.3749 347.432 85.6725 347.432 86.0358C347.432 86.3052 347.354 86.5495 347.197 86.7687C347.047 86.988 346.818 87.1603 346.511 87.2856C346.21 87.4108 345.85 87.4735 345.431 87.4735Z" fill="#4F5665"/>
<path d="M309.115 72.053C308.348 72.053 307.702 71.9355 307.177 71.7006C306.66 71.4579 306.277 71.1603 306.026 70.808C305.783 70.4556 305.654 70.1032 305.638 69.7509C305.638 69.6804 305.662 69.6217 305.709 69.5747C305.764 69.5277 305.826 69.5042 305.897 69.5042H307.518C307.612 69.5042 307.686 69.5238 307.741 69.5629C307.796 69.5942 307.847 69.6491 307.894 69.7274C308.042 70.1111 308.453 70.3029 309.127 70.3029C309.511 70.3029 309.808 70.2129 310.02 70.0328C310.231 69.8527 310.337 69.6099 310.337 69.3045C310.337 68.7172 309.945 68.4236 309.162 68.4236H307.847C307.76 68.4236 307.686 68.3962 307.623 68.3414C307.569 68.2787 307.541 68.2043 307.541 68.1182V67.4252C307.541 67.2451 307.608 67.112 307.741 67.0259L309.632 65.4754H306.39C306.312 65.4754 306.241 65.448 306.179 65.3932C306.124 65.3306 306.096 65.2601 306.096 65.1818V64.019C306.096 63.9328 306.124 63.8624 306.179 63.8076C306.234 63.7449 306.304 63.7136 306.39 63.7136H311.864C311.95 63.7136 312.02 63.7449 312.075 63.8076C312.13 63.8624 312.157 63.9328 312.157 64.019V65.0643C312.157 65.2288 312.095 65.358 311.969 65.452L310.231 67.0376L310.313 67.0611C311.018 67.1629 311.578 67.4056 311.993 67.7893C312.408 68.173 312.615 68.7251 312.615 69.4455C312.615 69.9701 312.463 70.4321 312.157 70.8315C311.86 71.223 311.445 71.5244 310.912 71.7359C310.388 71.9473 309.789 72.053 309.115 72.053ZM317.091 72.053C316.01 72.0452 315.188 71.7594 314.624 71.1956C314.06 70.6318 313.751 69.8879 313.696 68.9639C313.681 68.5411 313.673 68.1613 313.673 67.8246C313.673 67.48 313.681 67.0885 313.696 66.65C313.728 66.0627 313.873 65.542 314.131 65.0878C314.397 64.6258 314.777 64.2617 315.27 63.9955C315.771 63.7293 316.378 63.5961 317.091 63.5961C317.803 63.5961 318.41 63.7293 318.911 63.9955C319.413 64.2617 319.792 64.6258 320.051 65.0878C320.317 65.542 320.466 66.0627 320.497 66.65C320.513 66.8693 320.521 67.2608 320.521 67.8246C320.521 68.3727 320.513 68.7525 320.497 68.9639C320.442 69.8879 320.133 70.6318 319.569 71.1956C319.005 71.7594 318.179 72.0452 317.091 72.053ZM317.091 70.2794C317.459 70.2794 317.733 70.162 317.913 69.927C318.093 69.6843 318.191 69.3437 318.207 68.9052C318.222 68.6781 318.23 68.3101 318.23 67.8011C318.23 67.2921 318.222 66.9319 318.207 66.7205C318.191 66.2976 318.093 65.9648 317.913 65.7221C317.733 65.4715 317.459 65.3462 317.091 65.3462C316.386 65.3462 316.014 65.8043 315.975 66.7205C315.967 66.9319 315.963 67.2921 315.963 67.8011C315.963 68.3101 315.967 68.6781 315.975 68.9052C316.014 69.8213 316.386 70.2794 317.091 70.2794ZM324.169 71.5479C324.09 71.5479 324.02 71.5205 323.957 71.4657C323.902 71.4031 323.875 71.3326 323.875 71.2543V69.1283H321.808C321.73 69.1283 321.659 69.1009 321.596 69.0461C321.542 68.9835 321.514 68.913 321.514 68.8347V67.9303C321.514 67.8441 321.542 67.7737 321.596 67.7189C321.651 67.6562 321.722 67.6249 321.808 67.6249H323.875V65.5694C323.875 65.4833 323.902 65.4128 323.957 65.358C324.02 65.3032 324.09 65.2758 324.169 65.2758H325.179C325.265 65.2758 325.335 65.3032 325.39 65.358C325.453 65.4128 325.484 65.4833 325.484 65.5694V67.6249H327.528C327.614 67.6249 327.685 67.6562 327.739 67.7189C327.802 67.7737 327.833 67.8441 327.833 67.9303V68.8347C327.833 68.9208 327.802 68.9913 327.739 69.0461C327.685 69.1009 327.614 69.1283 327.528 69.1283H325.484V71.2543C325.484 71.3404 325.453 71.4109 325.39 71.4657C325.335 71.5205 325.265 71.5479 325.179 71.5479H324.169Z" fill="#0B132A"/>
<path d="M126.515 87.4735C125.707 87.4735 125.084 87.2574 124.645 86.8251C124.207 86.3866 123.988 85.7257 123.988 84.8425V81.0275C123.988 80.9586 124.006 80.9053 124.044 80.8677C124.082 80.8239 124.132 80.802 124.194 80.802H124.645C124.714 80.802 124.768 80.8239 124.805 80.8677C124.849 80.9053 124.871 80.9586 124.871 81.0275V84.8613C124.871 85.4752 125.012 85.9325 125.294 86.2331C125.582 86.5338 125.989 86.6842 126.515 86.6842C127.035 86.6842 127.436 86.5338 127.718 86.2331C128.006 85.9262 128.15 85.4689 128.15 84.8613V81.0275C128.15 80.9586 128.169 80.9053 128.207 80.8677C128.244 80.8239 128.297 80.802 128.366 80.802H128.817C128.88 80.802 128.93 80.8239 128.968 80.8677C129.012 80.9053 129.034 80.9586 129.034 81.0275V84.8425C129.034 85.7257 128.814 86.3866 128.376 86.8251C127.944 87.2574 127.323 87.4735 126.515 87.4735ZM132.137 87.4735C131.705 87.4735 131.338 87.4046 131.038 87.2668C130.743 87.1227 130.524 86.9598 130.38 86.7781C130.236 86.5965 130.164 86.4461 130.164 86.3271C130.164 86.2645 130.186 86.2175 130.23 86.1862C130.273 86.1486 130.32 86.1298 130.371 86.1298H130.765C130.803 86.1298 130.831 86.136 130.85 86.1486C130.875 86.1611 130.906 86.1893 130.944 86.2331C131.088 86.4085 131.248 86.5464 131.423 86.6466C131.605 86.7468 131.846 86.7969 132.147 86.7969C132.485 86.7969 132.754 86.7343 132.955 86.609C133.161 86.4837 133.265 86.302 133.265 86.064C133.265 85.9074 133.221 85.7821 133.133 85.6881C133.045 85.5942 132.898 85.5096 132.692 85.4344C132.491 85.3593 132.19 85.2778 131.789 85.1901C131.244 85.0711 130.859 84.8988 130.634 84.6733C130.408 84.4478 130.295 84.1565 130.295 83.7994C130.295 83.5677 130.364 83.3453 130.502 83.1323C130.64 82.913 130.844 82.7376 131.113 82.6061C131.389 82.4683 131.714 82.3994 132.09 82.3994C132.485 82.3994 132.82 82.4651 133.096 82.5967C133.377 82.7282 133.587 82.8817 133.725 83.0571C133.869 83.2325 133.941 83.3797 133.941 83.4988C133.941 83.5551 133.919 83.6021 133.875 83.6397C133.838 83.6773 133.791 83.6961 133.735 83.6961H133.377C133.29 83.6961 133.227 83.6616 133.19 83.5927C133.083 83.4737 132.992 83.3829 132.917 83.3202C132.848 83.2513 132.745 83.1949 132.607 83.1511C132.469 83.101 132.297 83.0759 132.09 83.0759C131.783 83.0759 131.548 83.1417 131.385 83.2732C131.223 83.3985 131.141 83.5677 131.141 83.7807C131.141 83.9122 131.176 84.025 131.244 84.1189C131.313 84.2066 131.445 84.2912 131.639 84.3726C131.833 84.4478 132.121 84.5261 132.504 84.6075C133.099 84.7328 133.518 84.9114 133.763 85.1431C134.013 85.3749 134.139 85.6725 134.139 86.0358C134.139 86.3052 134.06 86.5495 133.904 86.7687C133.753 86.988 133.525 87.1603 133.218 87.2856C132.917 87.4108 132.557 87.4735 132.137 87.4735ZM137.172 87.4735C136.533 87.4735 136.022 87.2762 135.64 86.8815C135.258 86.4806 135.048 85.9356 135.011 85.2465L135.001 84.927L135.011 84.6169C135.048 83.9404 135.258 83.4017 135.64 83.0007C136.022 82.5998 136.533 82.3994 137.172 82.3994C137.861 82.3994 138.393 82.6186 138.769 83.0571C139.151 83.4956 139.342 84.0907 139.342 84.8425V85.0116C139.342 85.0742 139.321 85.1275 139.277 85.1713C139.239 85.2089 139.189 85.2277 139.126 85.2277H135.866V85.3123C135.885 85.7195 136.01 86.0671 136.242 86.3553C136.473 86.6435 136.78 86.7875 137.162 86.7875C137.457 86.7875 137.695 86.7312 137.877 86.6184C138.065 86.4994 138.205 86.3772 138.299 86.2519C138.356 86.1768 138.4 86.1329 138.431 86.1204C138.462 86.1016 138.516 86.0922 138.591 86.0922H139.004C139.061 86.0922 139.108 86.1079 139.145 86.1392C139.189 86.1705 139.211 86.2112 139.211 86.2613C139.211 86.3991 139.126 86.5652 138.957 86.7593C138.788 86.9535 138.547 87.1227 138.234 87.2668C137.927 87.4046 137.573 87.4735 137.172 87.4735ZM138.487 84.5888V84.5606C138.487 84.1221 138.368 83.765 138.13 83.4894C137.892 83.2137 137.573 83.0759 137.172 83.0759C136.765 83.0759 136.445 83.2137 136.213 83.4894C135.982 83.765 135.866 84.1221 135.866 84.5606V84.5888H138.487ZM140.701 87.3795C140.639 87.3795 140.585 87.3607 140.541 87.3231C140.504 87.2793 140.485 87.226 140.485 87.1634V82.7188C140.485 82.6562 140.504 82.603 140.541 82.5591C140.585 82.5153 140.639 82.4933 140.701 82.4933H141.096C141.165 82.4933 141.218 82.5153 141.256 82.5591C141.299 82.5967 141.321 82.6499 141.321 82.7188V83.1323C141.578 82.7063 142.014 82.4933 142.627 82.4933H142.994C143.063 82.4933 143.116 82.5121 143.154 82.5497C143.191 82.5873 143.21 82.6405 143.21 82.7094V83.0571C143.21 83.1198 143.191 83.173 143.154 83.2169C143.116 83.2544 143.063 83.2732 142.994 83.2732H142.458C142.114 83.2732 141.841 83.3735 141.641 83.5739C141.447 83.7744 141.35 84.0469 141.35 84.3914V87.1634C141.35 87.226 141.328 87.2793 141.284 87.3231C141.24 87.3607 141.187 87.3795 141.124 87.3795H140.701ZM145.69 87.4735C145.258 87.4735 144.892 87.4046 144.591 87.2668C144.297 87.1227 144.077 86.9598 143.933 86.7781C143.789 86.5965 143.717 86.4461 143.717 86.3271C143.717 86.2645 143.739 86.2175 143.783 86.1862C143.827 86.1486 143.874 86.1298 143.924 86.1298H144.319C144.356 86.1298 144.384 86.136 144.403 86.1486C144.428 86.1611 144.46 86.1893 144.497 86.2331C144.641 86.4085 144.801 86.5464 144.976 86.6466C145.158 86.7468 145.399 86.7969 145.7 86.7969C146.038 86.7969 146.308 86.7343 146.508 86.609C146.715 86.4837 146.818 86.302 146.818 86.064C146.818 85.9074 146.774 85.7821 146.687 85.6881C146.599 85.5942 146.452 85.5096 146.245 85.4344C146.044 85.3593 145.744 85.2778 145.343 85.1901C144.798 85.0711 144.413 84.8988 144.187 84.6733C143.962 84.4478 143.849 84.1565 143.849 83.7994C143.849 83.5677 143.918 83.3453 144.055 83.1323C144.193 82.913 144.397 82.7376 144.666 82.6061C144.942 82.4683 145.268 82.3994 145.643 82.3994C146.038 82.3994 146.373 82.4651 146.649 82.5967C146.931 82.7282 147.141 82.8817 147.278 83.0571C147.423 83.2325 147.495 83.3797 147.495 83.4988C147.495 83.5551 147.473 83.6021 147.429 83.6397C147.391 83.6773 147.344 83.6961 147.288 83.6961H146.931C146.843 83.6961 146.78 83.6616 146.743 83.5927C146.636 83.4737 146.546 83.3829 146.47 83.3202C146.401 83.2513 146.298 83.1949 146.16 83.1511C146.022 83.101 145.85 83.0759 145.643 83.0759C145.337 83.0759 145.102 83.1417 144.939 83.2732C144.776 83.3985 144.694 83.5677 144.694 83.7807C144.694 83.9122 144.729 84.025 144.798 84.1189C144.867 84.2066 144.998 84.2912 145.192 84.3726C145.387 84.4478 145.675 84.5261 146.057 84.6075C146.652 84.7328 147.072 84.9114 147.316 85.1431C147.567 85.3749 147.692 85.6725 147.692 86.0358C147.692 86.3052 147.614 86.5495 147.457 86.7687C147.307 86.988 147.078 87.1603 146.771 87.2856C146.47 87.4108 146.11 87.4735 145.69 87.4735Z" fill="#4F5665"/>
<path d="M125.237 71.9355C125.167 71.9355 125.108 71.9121 125.061 71.8651C125.014 71.8103 124.991 71.7476 124.991 71.6771C124.991 71.6223 125.006 71.5714 125.038 71.5244L126.682 69.281C126.58 69.3045 126.474 69.3124 126.365 69.3045C125.887 69.2732 125.433 69.144 125.002 68.9169C124.572 68.682 124.219 68.361 123.945 67.9538C123.679 67.5388 123.546 67.0689 123.546 66.5443C123.546 66.0275 123.675 65.5459 123.934 65.0996C124.2 64.6454 124.587 64.2813 125.096 64.0072C125.613 63.7332 126.232 63.5961 126.952 63.5961C127.68 63.5961 128.307 63.7214 128.831 63.972C129.356 64.2226 129.752 64.5671 130.018 65.0056C130.292 65.4363 130.429 65.9218 130.429 66.4621C130.429 66.8928 130.339 67.2882 130.159 67.6484C129.986 68.0008 129.724 68.4158 129.372 68.8934L129.16 69.1871L127.316 71.7006C127.207 71.8572 127.066 71.9355 126.893 71.9355H125.237ZM126.976 67.7071C127.32 67.7071 127.602 67.6014 127.821 67.39C128.048 67.1786 128.162 66.8928 128.162 66.5326C128.162 66.1724 128.048 65.8865 127.821 65.6751C127.594 65.4637 127.312 65.358 126.976 65.358C126.631 65.358 126.345 65.4637 126.118 65.6751C125.899 65.8865 125.789 66.1724 125.789 66.5326C125.789 66.8928 125.899 67.1786 126.118 67.39C126.337 67.6014 126.623 67.7071 126.976 67.7071ZM134.816 72.053C133.735 72.0452 132.913 71.7594 132.349 71.1956C131.785 70.6318 131.476 69.8879 131.421 68.9639C131.406 68.5411 131.398 68.1613 131.398 67.8246C131.398 67.48 131.406 67.0885 131.421 66.65C131.453 66.0627 131.597 65.542 131.856 65.0878C132.122 64.6258 132.502 64.2617 132.995 63.9955C133.496 63.7293 134.103 63.5961 134.816 63.5961C135.528 63.5961 136.135 63.7293 136.636 63.9955C137.137 64.2617 137.517 64.6258 137.776 65.0878C138.042 65.542 138.191 66.0627 138.222 66.65C138.238 66.8693 138.245 67.2608 138.245 67.8246C138.245 68.3727 138.238 68.7525 138.222 68.9639C138.167 69.8879 137.858 70.6318 137.294 71.1956C136.73 71.7594 135.904 72.0452 134.816 72.053ZM134.816 70.2794C135.184 70.2794 135.458 70.162 135.638 69.927C135.818 69.6843 135.916 69.3437 135.932 68.9052C135.947 68.6781 135.955 68.3101 135.955 67.8011C135.955 67.2921 135.947 66.9319 135.932 66.7205C135.916 66.2976 135.818 65.9648 135.638 65.7221C135.458 65.4715 135.184 65.3462 134.816 65.3462C134.111 65.3462 133.739 65.8043 133.7 66.7205C133.692 66.9319 133.688 67.2921 133.688 67.8011C133.688 68.3101 133.692 68.6781 133.7 68.9052C133.739 69.8213 134.111 70.2794 134.816 70.2794ZM141.894 71.5479C141.815 71.5479 141.745 71.5205 141.682 71.4657C141.627 71.4031 141.6 71.3326 141.6 71.2543V69.1283H139.533C139.454 69.1283 139.384 69.1009 139.321 69.0461C139.266 68.9835 139.239 68.913 139.239 68.8347V67.9303C139.239 67.8441 139.266 67.7737 139.321 67.7189C139.376 67.6562 139.447 67.6249 139.533 67.6249H141.6V65.5694C141.6 65.4833 141.627 65.4128 141.682 65.358C141.745 65.3032 141.815 65.2758 141.894 65.2758H142.904C142.99 65.2758 143.06 65.3032 143.115 65.358C143.178 65.4128 143.209 65.4833 143.209 65.5694V67.6249H145.253C145.339 67.6249 145.409 67.6562 145.464 67.7189C145.527 67.7737 145.558 67.8441 145.558 67.9303V68.8347C145.558 68.9208 145.527 68.9913 145.464 69.0461C145.409 69.1009 145.339 69.1283 145.253 69.1283H143.209V71.2543C143.209 71.3404 143.178 71.4109 143.115 71.4657C143.06 71.5205 142.99 71.5479 142.904 71.5479H141.894Z" fill="#0B132A"/>
<path d="M500.121 87.4735C499.607 87.4735 499.159 87.392 498.777 87.2292C498.401 87.0663 498.113 86.8533 497.912 86.5902C497.718 86.3208 497.615 86.0327 497.602 85.7257C497.602 85.6756 497.621 85.6318 497.659 85.5942C497.696 85.5566 497.743 85.5378 497.8 85.5378H498.26C498.373 85.5378 498.451 85.6004 498.495 85.7257C498.551 85.9888 498.711 86.2175 498.974 86.4117C499.244 86.5996 499.626 86.6936 500.121 86.6936C500.653 86.6936 501.051 86.5996 501.314 86.4117C501.577 86.2237 501.709 85.9638 501.709 85.6318C501.709 85.4188 501.643 85.2434 501.511 85.1056C501.386 84.9677 501.195 84.8487 500.938 84.7485C500.687 84.642 500.308 84.5136 499.801 84.3632C499.319 84.2254 498.933 84.0782 498.645 83.9216C498.363 83.765 498.15 83.5739 498.006 83.3484C497.862 83.1166 497.79 82.8253 497.79 82.4745C497.79 82.1363 497.881 81.8356 498.063 81.5725C498.244 81.3031 498.507 81.0932 498.852 80.9429C499.197 80.7863 499.604 80.708 500.074 80.708C500.562 80.708 500.979 80.7957 501.323 80.9711C501.674 81.1402 501.94 81.3564 502.122 81.6195C502.304 81.8763 502.401 82.1363 502.413 82.3994C502.413 82.4557 502.395 82.5027 502.357 82.5403C502.319 82.5779 502.272 82.5967 502.216 82.5967H501.746C501.696 82.5967 501.649 82.581 501.605 82.5497C501.561 82.5184 501.53 82.4714 501.511 82.4088C501.474 82.1394 501.323 81.917 501.06 81.7416C500.797 81.5662 500.468 81.4785 500.074 81.4785C499.648 81.4785 499.309 81.5631 499.059 81.7322C498.808 81.8951 498.683 82.1394 498.683 82.4651C498.683 82.6844 498.739 82.8629 498.852 83.0007C498.971 83.1386 499.15 83.2607 499.388 83.3672C499.632 83.4737 499.986 83.5959 500.449 83.7337C500.982 83.884 501.398 84.0344 501.699 84.1847C502.006 84.335 502.235 84.523 502.385 84.7485C502.535 84.9677 502.611 85.2528 502.611 85.6036C502.611 86.1924 502.385 86.6529 501.934 86.9849C501.489 87.3106 500.885 87.4735 500.121 87.4735ZM505.666 87.4735C505.027 87.4735 504.516 87.2762 504.134 86.8815C503.752 86.4806 503.542 85.9356 503.504 85.2465L503.495 84.927L503.504 84.6169C503.542 83.9404 503.752 83.4017 504.134 83.0007C504.516 82.5998 505.027 82.3994 505.666 82.3994C506.355 82.3994 506.887 82.6186 507.263 83.0571C507.645 83.4956 507.836 84.0907 507.836 84.8425V85.0116C507.836 85.0742 507.814 85.1275 507.77 85.1713C507.733 85.2089 507.683 85.2277 507.62 85.2277H504.359V85.3123C504.378 85.7195 504.504 86.0671 504.735 86.3553C504.967 86.6435 505.274 86.7875 505.656 86.7875C505.951 86.7875 506.189 86.7312 506.37 86.6184C506.558 86.4994 506.699 86.3772 506.793 86.2519C506.85 86.1768 506.893 86.1329 506.925 86.1204C506.956 86.1016 507.009 86.0922 507.084 86.0922H507.498C507.554 86.0922 507.601 86.1079 507.639 86.1392C507.683 86.1705 507.705 86.2112 507.705 86.2613C507.705 86.3991 507.62 86.5652 507.451 86.7593C507.282 86.9535 507.041 87.1227 506.727 87.2668C506.42 87.4046 506.067 87.4735 505.666 87.4735ZM506.981 84.5888V84.5606C506.981 84.1221 506.862 83.765 506.624 83.4894C506.386 83.2137 506.067 83.0759 505.666 83.0759C505.258 83.0759 504.939 83.2137 504.707 83.4894C504.475 83.765 504.359 84.1221 504.359 84.5606V84.5888H506.981ZM509.195 87.3795C509.132 87.3795 509.079 87.3607 509.035 87.3231C508.998 87.2793 508.979 87.226 508.979 87.1634V82.7188C508.979 82.6562 508.998 82.603 509.035 82.5591C509.079 82.5153 509.132 82.4933 509.195 82.4933H509.59C509.658 82.4933 509.712 82.5153 509.749 82.5591C509.793 82.5967 509.815 82.6499 509.815 82.7188V83.1323C510.072 82.7063 510.507 82.4933 511.121 82.4933H511.488C511.557 82.4933 511.61 82.5121 511.647 82.5497C511.685 82.5873 511.704 82.6405 511.704 82.7094V83.0571C511.704 83.1198 511.685 83.173 511.647 83.2169C511.61 83.2544 511.557 83.2732 511.488 83.2732H510.952C510.607 83.2732 510.335 83.3735 510.135 83.5739C509.94 83.7744 509.843 84.0469 509.843 84.3914V87.1634C509.843 87.226 509.821 87.2793 509.777 87.3231C509.734 87.3607 509.68 87.3795 509.618 87.3795H509.195ZM514.212 87.3795C514.05 87.3795 513.934 87.3012 513.865 87.1446L512.117 82.7846C512.111 82.7658 512.108 82.7345 512.108 82.6907C512.108 82.6343 512.126 82.5873 512.164 82.5497C512.202 82.5121 512.245 82.4933 512.296 82.4933H512.728C512.828 82.4933 512.903 82.5434 512.953 82.6437L514.4 86.3929L515.847 82.6437C515.86 82.6061 515.885 82.5716 515.923 82.5403C515.966 82.509 516.017 82.4933 516.073 82.4933H516.505C516.555 82.4933 516.599 82.5121 516.637 82.5497C516.674 82.5873 516.693 82.6343 516.693 82.6907L516.674 82.7846L514.936 87.1446C514.867 87.3012 514.751 87.3795 514.588 87.3795H514.212ZM519.458 87.4735C518.819 87.4735 518.308 87.2762 517.926 86.8815C517.544 86.4806 517.334 85.9356 517.296 85.2465L517.287 84.927L517.296 84.6169C517.334 83.9404 517.544 83.4017 517.926 83.0007C518.308 82.5998 518.819 82.3994 519.458 82.3994C520.147 82.3994 520.679 82.6186 521.055 83.0571C521.437 83.4956 521.628 84.0907 521.628 84.8425V85.0116C521.628 85.0742 521.606 85.1275 521.562 85.1713C521.525 85.2089 521.475 85.2277 521.412 85.2277H518.151V85.3123C518.17 85.7195 518.296 86.0671 518.527 86.3553C518.759 86.6435 519.066 86.7875 519.448 86.7875C519.743 86.7875 519.981 86.7312 520.162 86.6184C520.35 86.4994 520.491 86.3772 520.585 86.2519C520.642 86.1768 520.685 86.1329 520.717 86.1204C520.748 86.1016 520.801 86.0922 520.876 86.0922H521.29C521.346 86.0922 521.393 86.1079 521.431 86.1392C521.475 86.1705 521.497 86.2112 521.497 86.2613C521.497 86.3991 521.412 86.5652 521.243 86.7593C521.074 86.9535 520.833 87.1227 520.519 87.2668C520.212 87.4046 519.858 87.4735 519.458 87.4735ZM520.773 84.5888V84.5606C520.773 84.1221 520.654 83.765 520.416 83.4894C520.178 83.2137 519.858 83.0759 519.458 83.0759C519.05 83.0759 518.731 83.2137 518.499 83.4894C518.267 83.765 518.151 84.1221 518.151 84.5606V84.5888H520.773ZM522.987 87.3795C522.924 87.3795 522.871 87.3607 522.827 87.3231C522.789 87.2793 522.771 87.226 522.771 87.1634V82.7188C522.771 82.6562 522.789 82.603 522.827 82.5591C522.871 82.5153 522.924 82.4933 522.987 82.4933H523.381C523.45 82.4933 523.504 82.5153 523.541 82.5591C523.585 82.5967 523.607 82.6499 523.607 82.7188V83.1323C523.864 82.7063 524.299 82.4933 524.913 82.4933H525.28C525.348 82.4933 525.402 82.5121 525.439 82.5497C525.477 82.5873 525.496 82.6405 525.496 82.7094V83.0571C525.496 83.1198 525.477 83.173 525.439 83.2169C525.402 83.2544 525.348 83.2732 525.28 83.2732H524.744C524.399 83.2732 524.127 83.3735 523.926 83.5739C523.732 83.7744 523.635 84.0469 523.635 84.3914V87.1634C523.635 87.226 523.613 87.2793 523.569 87.3231C523.526 87.3607 523.472 87.3795 523.41 87.3795H522.987ZM527.976 87.4735C527.544 87.4735 527.177 87.4046 526.877 87.2668C526.582 87.1227 526.363 86.9598 526.219 86.7781C526.075 86.5965 526.003 86.4461 526.003 86.3271C526.003 86.2645 526.025 86.2175 526.069 86.1862C526.113 86.1486 526.159 86.1298 526.21 86.1298H526.604C526.642 86.1298 526.67 86.136 526.689 86.1486C526.714 86.1611 526.745 86.1893 526.783 86.2331C526.927 86.4085 527.087 86.5464 527.262 86.6466C527.444 86.7468 527.685 86.7969 527.986 86.7969C528.324 86.7969 528.593 86.7343 528.794 86.609C529 86.4837 529.104 86.302 529.104 86.064C529.104 85.9074 529.06 85.7821 528.972 85.6881C528.884 85.5942 528.737 85.5096 528.531 85.4344C528.33 85.3593 528.029 85.2778 527.628 85.1901C527.083 85.0711 526.698 84.8988 526.473 84.6733C526.247 84.4478 526.134 84.1565 526.134 83.7994C526.134 83.5677 526.203 83.3453 526.341 83.1323C526.479 82.913 526.683 82.7376 526.952 82.6061C527.228 82.4683 527.553 82.3994 527.929 82.3994C528.324 82.3994 528.659 82.4651 528.935 82.5967C529.216 82.7282 529.426 82.8817 529.564 83.0571C529.708 83.2325 529.78 83.3797 529.78 83.4988C529.78 83.5551 529.758 83.6021 529.715 83.6397C529.677 83.6773 529.63 83.6961 529.574 83.6961H529.216C529.129 83.6961 529.066 83.6616 529.029 83.5927C528.922 83.4737 528.831 83.3829 528.756 83.3202C528.687 83.2513 528.584 83.1949 528.446 83.1511C528.308 83.101 528.136 83.0759 527.929 83.0759C527.622 83.0759 527.387 83.1417 527.224 83.2732C527.062 83.3985 526.98 83.5677 526.98 83.7807C526.98 83.9122 527.015 84.025 527.083 84.1189C527.152 84.2066 527.284 84.2912 527.478 84.3726C527.672 84.4478 527.96 84.5261 528.343 84.6075C528.938 84.7328 529.357 84.9114 529.602 85.1431C529.852 85.3749 529.978 85.6725 529.978 86.0358C529.978 86.3052 529.899 86.5495 529.743 86.7687C529.592 86.988 529.364 87.1603 529.057 87.2856C528.756 87.4108 528.396 87.4735 527.976 87.4735Z" fill="#4F5665"/>
<path d="M500.992 72.0647C500.279 72.0647 499.665 71.9512 499.148 71.7241C498.639 71.497 498.251 71.1956 497.985 70.8197C497.727 70.4439 497.59 70.0328 497.574 69.5864C497.574 69.5159 497.597 69.4572 497.644 69.4102C497.691 69.3633 497.75 69.3398 497.821 69.3398H499.477C499.665 69.3398 499.794 69.4141 499.864 69.5629C499.974 69.8213 500.119 70.0093 500.299 70.1267C500.487 70.2442 500.718 70.3029 500.992 70.3029C501.329 70.3029 501.607 70.2011 501.826 69.9975C502.053 69.7939 502.166 69.5081 502.166 69.1401C502.166 68.819 502.057 68.5528 501.838 68.3414C501.618 68.13 501.336 68.0242 500.992 68.0242C500.796 68.0242 500.639 68.0517 500.522 68.1065C500.405 68.1535 500.291 68.22 500.181 68.3061C500.064 68.4001 499.962 68.4471 499.876 68.4471H498.243C498.173 68.4471 498.11 68.4236 498.055 68.3766C498.008 68.3218 497.985 68.2592 497.985 68.1887L498.42 64.066C498.427 63.9563 498.467 63.8702 498.537 63.8076C498.615 63.7449 498.705 63.7136 498.807 63.7136H503.588C503.674 63.7136 503.744 63.741 503.799 63.7958C503.854 63.8506 503.881 63.9211 503.881 64.0072V65.1818C503.881 65.2601 503.854 65.3306 503.799 65.3932C503.744 65.448 503.674 65.4754 503.588 65.4754H500.17L500.029 66.9202C500.217 66.787 500.428 66.6892 500.663 66.6265C500.898 66.556 501.203 66.5208 501.579 66.5208C502.08 66.5208 502.55 66.6343 502.989 66.8614C503.427 67.0807 503.776 67.3939 504.034 67.8011C504.3 68.2083 504.433 68.6742 504.433 69.1988C504.433 69.7469 504.296 70.2403 504.022 70.6788C503.748 71.1094 503.349 71.4501 502.824 71.7006C502.307 71.9434 501.697 72.0647 500.992 72.0647ZM508.854 72.053C507.773 72.0452 506.951 71.7594 506.387 71.1956C505.824 70.6318 505.514 69.8879 505.459 68.9639C505.444 68.5411 505.436 68.1613 505.436 67.8246C505.436 67.48 505.444 67.0885 505.459 66.65C505.491 66.0627 505.636 65.542 505.894 65.0878C506.16 64.6258 506.54 64.2617 507.033 63.9955C507.535 63.7293 508.141 63.5961 508.854 63.5961C509.567 63.5961 510.173 63.7293 510.675 63.9955C511.176 64.2617 511.555 64.6258 511.814 65.0878C512.08 65.542 512.229 66.0627 512.26 66.65C512.276 66.8693 512.284 67.2608 512.284 67.8246C512.284 68.3727 512.276 68.7525 512.26 68.9639C512.205 69.8879 511.896 70.6318 511.332 71.1956C510.769 71.7594 509.942 72.0452 508.854 72.053ZM508.854 70.2794C509.222 70.2794 509.496 70.162 509.676 69.927C509.856 69.6843 509.954 69.3437 509.97 68.9052C509.985 68.6781 509.993 68.3101 509.993 67.8011C509.993 67.2921 509.985 66.9319 509.97 66.7205C509.954 66.2976 509.856 65.9648 509.676 65.7221C509.496 65.4715 509.222 65.3462 508.854 65.3462C508.149 65.3462 507.777 65.8043 507.738 66.7205C507.73 66.9319 507.726 67.2921 507.726 67.8011C507.726 68.3101 507.73 68.6781 507.738 68.9052C507.777 69.8213 508.149 70.2794 508.854 70.2794ZM515.932 71.5479C515.854 71.5479 515.783 71.5205 515.72 71.4657C515.666 71.4031 515.638 71.3326 515.638 71.2543V69.1283H513.571C513.493 69.1283 513.422 69.1009 513.36 69.0461C513.305 68.9835 513.277 68.913 513.277 68.8347V67.9303C513.277 67.8441 513.305 67.7737 513.36 67.7189C513.414 67.6562 513.485 67.6249 513.571 67.6249H515.638V65.5694C515.638 65.4833 515.666 65.4128 515.72 65.358C515.783 65.3032 515.854 65.2758 515.932 65.2758H516.942C517.028 65.2758 517.099 65.3032 517.153 65.358C517.216 65.4128 517.247 65.4833 517.247 65.5694V67.6249H519.291C519.377 67.6249 519.448 67.6562 519.503 67.7189C519.565 67.7737 519.596 67.8441 519.596 67.9303V68.8347C519.596 68.9208 519.565 68.9913 519.503 69.0461C519.448 69.1009 519.377 69.1283 519.291 69.1283H517.247V71.2543C517.247 71.3404 517.216 71.4109 517.153 71.4657C517.099 71.5205 517.028 71.5479 516.942 71.5479H515.932Z" fill="#0B132A"/>
<path d="M209.195 46.7061V105.704" stroke="#EEEFF2" stroke-width="0.939651" stroke-linecap="round"/>
<path d="M411.22 46.7061V105.704" stroke="#EEEFF2" stroke-width="0.939651" stroke-linecap="round"/>
<rect x="262.285" y="63.2847" width="25.8404" height="25.8404" rx="12.9202" fill="#FFECEC"/>
<path d="M278.494 74.7954C278.494 74.3635 278.409 73.9358 278.244 73.5368C278.079 73.1378 277.837 72.7752 277.531 72.4699C277.226 72.1645 276.863 71.9222 276.464 71.7569C276.065 71.5917 275.638 71.5066 275.206 71.5066C274.774 71.5066 274.346 71.5917 273.947 71.7569C273.548 71.9222 273.186 72.1645 272.88 72.4699C272.575 72.7752 272.332 73.1378 272.167 73.5368C272.002 73.9358 271.917 74.3635 271.917 74.7954C271.917 75.447 272.109 76.0531 272.436 76.5643H272.432C273.541 78.3003 275.206 80.9031 275.206 80.9031L277.979 76.5643H277.976C278.314 76.0364 278.494 75.4225 278.494 74.7954V74.7954ZM275.206 76.2048C274.832 76.2048 274.473 76.0564 274.209 75.792C273.945 75.5277 273.796 75.1692 273.796 74.7954C273.796 74.4216 273.945 74.063 274.209 73.7987C274.473 73.5344 274.832 73.3859 275.206 73.3859C275.579 73.3859 275.938 73.5344 276.202 73.7987C276.467 74.063 276.615 74.4216 276.615 74.7954C276.615 75.1692 276.467 75.5277 276.202 75.792C275.938 76.0564 275.579 76.2048 275.206 76.2048Z" fill="#F53838"/>
<rect x="80.2282" y="63.2847" width="25.8404" height="25.8404" rx="12.9202" fill="#FFECEC"/>
<path fill-rule="evenodd" clip-rule="evenodd" d="M93.1483 75.6412C93.5969 75.6412 94.0271 75.463 94.3443 75.1458C94.6615 74.8286 94.8397 74.3984 94.8397 73.9498C94.8397 73.5012 94.6615 73.071 94.3443 72.7538C94.0271 72.4366 93.5969 72.2584 93.1483 72.2584C92.6997 72.2584 92.2695 72.4366 91.9523 72.7538C91.6351 73.071 91.4569 73.5012 91.4569 73.9498C91.4569 74.3984 91.6351 74.8286 91.9523 75.1458C92.2695 75.463 92.6997 75.6412 93.1483 75.6412ZM90.7516 80.7153C89.8956 80.7153 89.1746 79.9958 89.5022 79.205V79.205C89.7005 78.7262 89.9912 78.2911 90.3577 77.9247C90.7242 77.5582 91.1592 77.2675 91.638 77.0692C92.1169 76.8708 92.6301 76.7687 93.1483 76.7687C93.6666 76.7687 94.1798 76.8708 94.6586 77.0692C95.1374 77.2675 95.5725 77.5582 95.9389 77.9247C96.3054 78.2911 96.5961 78.7262 96.7944 79.205V79.205C97.122 79.9958 96.401 80.7153 95.5451 80.7153H90.7516Z" fill="#F53838"/>
<rect x="454.209" y="63.2847" width="25.8404" height="25.8404" rx="12.9202" fill="#FFECEC"/>
<path d="M470.888 71.9764H463.371C463.122 71.9764 462.883 72.0754 462.706 72.2517C462.53 72.4279 462.431 72.6669 462.431 72.9161V74.7954C462.431 75.0446 462.53 75.2836 462.706 75.4598C462.883 75.636 463.122 75.735 463.371 75.735H470.888C471.137 75.735 471.376 75.636 471.552 75.4598C471.729 75.2836 471.828 75.0446 471.828 74.7954V72.9161C471.828 72.6669 471.729 72.4279 471.552 72.2517C471.376 72.0754 471.137 71.9764 470.888 71.9764ZM468.539 73.8557C468.539 74.1152 468.329 74.3256 468.069 74.3256V74.3256C467.81 74.3256 467.599 74.1152 467.599 73.8557V73.8557C467.599 73.5963 467.81 73.3859 468.069 73.3859V73.3859C468.329 73.3859 468.539 73.5963 468.539 73.8557V73.8557ZM470.418 73.8557C470.418 74.1152 470.208 74.3256 469.948 74.3256V74.3256C469.689 74.3256 469.479 74.1152 469.479 73.8557V73.8557C469.479 73.5963 469.689 73.3859 469.948 73.3859V73.3859C470.208 73.3859 470.418 73.5963 470.418 73.8557V73.8557ZM470.888 76.6747H463.371C463.122 76.6747 462.883 76.7737 462.706 76.9499C462.53 77.1261 462.431 77.3651 462.431 77.6143V79.4937C462.431 79.7429 462.53 79.9819 462.706 80.1581C462.883 80.3343 463.122 80.4333 463.371 80.4333H470.888C471.137 80.4333 471.376 80.3343 471.552 80.1581C471.729 79.9819 471.828 79.7429 471.828 79.4937V77.6143C471.828 77.3651 471.729 77.1261 471.552 76.9499C471.376 76.7737 471.137 76.6747 470.888 76.6747ZM468.539 78.554C468.539 78.8135 468.329 79.0238 468.069 79.0238V79.0238C467.81 79.0238 467.599 78.8135 467.599 78.554V78.554C467.599 78.2945 467.81 78.0842 468.069 78.0842V78.0842C468.329 78.0842 468.539 78.2945 468.539 78.554V78.554ZM470.418 78.554C470.418 78.8135 470.208 79.0238 469.948 79.0238V79.0238C469.689 79.0238 469.479 78.8135 469.479 78.554V78.554C469.479 78.2945 469.689 78.0842 469.948 78.0842V78.0842C470.208 78.0842 470.418 78.2945 470.418 78.554V78.554Z" fill="#F53838"/>
<defs>
<filter id="filter0_f_14_2" x="0.629875" y="0.468193" width="609.29" height="196.02" filterUnits="userSpaceOnUse" color-interpolation-filters="sRGB">
<feFlood flood-opacity="0" result="BackgroundImageFix"/>
<feBlend mode="normal" in="SourceGraphic" in2="BackgroundImageFix" result="shape"/>
<feGaussianBlur stdDeviation="26.7801" result="effect1_foregroundBlur_14_2"/>
</filter>
</defs>
</svg>
