<svg width="537" height="22" viewBox="0 0 537 22" fill="none" xmlns="http://www.w3.org/2000/svg">
<path d="M22.5745 14.3647C22.5118 14.3647 22.4586 14.3428 22.4147 14.299C22.3709 14.2551 22.349 14.2019 22.349 14.1392V8.0127C22.349 7.9438 22.3709 7.89055 22.4147 7.85296C22.4586 7.80911 22.5118 7.78719 22.5745 7.78719H23.4577C23.5267 7.78719 23.5799 7.80911 23.6175 7.85296C23.6613 7.89055 23.6833 7.9438 23.6833 8.0127V13.2372H26.662C26.7309 13.2372 26.7872 13.2591 26.8311 13.3029C26.8749 13.3468 26.8969 13.4 26.8969 13.4627V14.1392C26.8969 14.2019 26.8749 14.2551 26.8311 14.299C26.7872 14.3428 26.7309 14.3647 26.662 14.3647H22.5745ZM29.115 14.4587C28.7955 14.4587 28.5011 14.3961 28.2317 14.2708C27.9686 14.1392 27.7587 13.9638 27.6021 13.7446C27.4518 13.5253 27.3766 13.2841 27.3766 13.021C27.3766 12.5951 27.5489 12.2505 27.8934 11.9874C28.238 11.7243 28.7109 11.5458 29.3123 11.4518L30.5996 11.2639V11.0666C30.5996 10.7972 30.5307 10.5936 30.3929 10.4558C30.2551 10.318 30.0358 10.2491 29.7351 10.2491C29.5284 10.2491 29.3624 10.2867 29.2371 10.3618C29.1118 10.437 29.0085 10.5153 28.927 10.5967C28.8519 10.6719 28.8017 10.722 28.7767 10.7471C28.7516 10.8223 28.7046 10.8598 28.6357 10.8598H27.9028C27.8464 10.8598 27.7963 10.8411 27.7525 10.8035C27.7149 10.7659 27.6961 10.7158 27.6961 10.6531C27.7024 10.4965 27.7775 10.3211 27.9216 10.1269C28.0719 9.92646 28.3006 9.75419 28.6075 9.61011C28.9145 9.45977 29.2935 9.38459 29.7445 9.38459C30.4837 9.38459 31.0225 9.5506 31.3607 9.88261C31.699 10.2146 31.8681 10.65 31.8681 11.1887V14.1392C31.8681 14.2019 31.8462 14.2551 31.8024 14.299C31.7648 14.3428 31.7115 14.3647 31.6426 14.3647H30.8627C30.8001 14.3647 30.7468 14.3428 30.703 14.299C30.6591 14.2551 30.6372 14.2019 30.6372 14.1392V13.7728C30.4994 13.9732 30.3052 14.1392 30.0546 14.2708C29.804 14.3961 29.4908 14.4587 29.115 14.4587ZM29.4344 13.5566C29.779 13.5566 30.0609 13.4439 30.2801 13.2184C30.4994 12.9929 30.609 12.6671 30.609 12.2411V12.0532L29.6694 12.2035C28.949 12.3163 28.5888 12.5575 28.5888 12.9271C28.5888 13.1275 28.6702 13.2841 28.8331 13.3969C29.0022 13.5034 29.2027 13.5566 29.4344 13.5566ZM34.9339 14.4587C34.4578 14.4587 34.06 14.3867 33.7405 14.2426C33.4211 14.0985 33.183 13.9325 33.0264 13.7446C32.8761 13.5504 32.8009 13.3844 32.8009 13.2466C32.8009 13.1839 32.8197 13.1338 32.8573 13.0962C32.9011 13.0586 32.9512 13.0398 33.0076 13.0398H33.7781C33.8282 13.0398 33.8721 13.0649 33.9097 13.115C33.941 13.1401 34.0099 13.1996 34.1164 13.2935C34.2292 13.3875 34.3544 13.4627 34.4923 13.5191C34.6363 13.5692 34.7929 13.5942 34.9621 13.5942C35.2127 13.5942 35.4163 13.5472 35.5729 13.4533C35.7295 13.3531 35.8078 13.2121 35.8078 13.0304C35.8078 12.9052 35.7702 12.8049 35.695 12.7298C35.6261 12.6483 35.4977 12.5763 35.3098 12.5136C35.1281 12.4447 34.8525 12.3696 34.4829 12.2881C33.9504 12.1754 33.5557 12.0031 33.2989 11.7713C33.0483 11.5395 32.923 11.2326 32.923 10.8505C32.923 10.5999 32.9982 10.365 33.1486 10.1457C33.2989 9.9202 33.5213 9.73853 33.8157 9.60071C34.1164 9.45663 34.4735 9.38459 34.8869 9.38459C35.3129 9.38459 35.6794 9.4535 35.9863 9.59132C36.2933 9.72287 36.525 9.88261 36.6816 10.0705C36.8445 10.2585 36.926 10.4245 36.926 10.5686C36.926 10.6249 36.904 10.675 36.8602 10.7189C36.8226 10.7565 36.7756 10.7753 36.7192 10.7753H36.0145C35.9456 10.7753 35.8923 10.7502 35.8548 10.7001C35.8109 10.6688 35.7389 10.6124 35.6386 10.531C35.5447 10.4433 35.4382 10.3744 35.3192 10.3242C35.2001 10.2741 35.0561 10.2491 34.8869 10.2491C34.6551 10.2491 34.4766 10.2992 34.3513 10.3994C34.226 10.4996 34.1634 10.6312 34.1634 10.7941C34.1634 10.9068 34.1916 11.0008 34.248 11.076C34.3106 11.1511 34.4327 11.2232 34.6144 11.2921C34.7961 11.3547 35.0686 11.4205 35.4319 11.4894C36.5595 11.7087 37.1233 12.2004 37.1233 12.9647C37.1233 13.4094 36.9291 13.7696 36.5407 14.0453C36.1586 14.3209 35.623 14.4587 34.9339 14.4587ZM38.3185 14.3647C38.2559 14.3647 38.2027 14.3428 38.1588 14.299C38.115 14.2551 38.093 14.2019 38.093 14.1392V7.91874C38.093 7.84983 38.115 7.79658 38.1588 7.759C38.2027 7.71515 38.2559 7.69322 38.3185 7.69322H39.1079C39.1768 7.69322 39.23 7.71515 39.2676 7.759C39.3114 7.79658 39.3334 7.84983 39.3334 7.91874V14.1392C39.3334 14.2019 39.3114 14.2551 39.2676 14.299C39.23 14.3428 39.1768 14.3647 39.1079 14.3647H38.3185ZM42.6938 14.4587C41.9922 14.4587 41.4347 14.2583 41.0212 13.8573C40.614 13.4564 40.3979 12.8864 40.3729 12.1472L40.3635 11.9123C40.3635 11.1292 40.5671 10.5122 40.9742 10.0611C41.3877 9.61011 41.9577 9.38459 42.6844 9.38459C43.4299 9.38459 44.003 9.61011 44.404 10.0611C44.8111 10.5122 45.0147 11.1136 45.0147 11.8653V12.0626C45.0147 12.1252 44.9928 12.1785 44.949 12.2223C44.9051 12.2662 44.8487 12.2881 44.7798 12.2881H41.6602V12.3633C41.6727 12.7141 41.7667 13.0054 41.9421 13.2372C42.1237 13.4627 42.3712 13.5754 42.6844 13.5754C43.0415 13.5754 43.3328 13.4314 43.5583 13.1432C43.6147 13.0743 43.6585 13.0336 43.6898 13.021C43.7212 13.0023 43.7744 12.9929 43.8496 12.9929H44.6765C44.7328 12.9929 44.7798 13.0085 44.8174 13.0398C44.8613 13.0712 44.8832 13.115 44.8832 13.1714C44.8832 13.3217 44.7924 13.5003 44.6107 13.707C44.4353 13.9074 44.1816 14.0829 43.8496 14.2332C43.5176 14.3835 43.1323 14.4587 42.6938 14.4587ZM43.718 11.4894V11.4706C43.718 11.101 43.6241 10.8066 43.4361 10.5873C43.2545 10.3618 43.0039 10.2491 42.6844 10.2491C42.3649 10.2491 42.1143 10.3618 41.9327 10.5873C41.751 10.8066 41.6602 11.101 41.6602 11.4706V11.4894H43.718ZM47.8725 14.4587C47.3964 14.4587 46.9986 14.3867 46.6791 14.2426C46.3596 14.0985 46.1216 13.9325 45.965 13.7446C45.8146 13.5504 45.7394 13.3844 45.7394 13.2466C45.7394 13.1839 45.7582 13.1338 45.7958 13.0962C45.8397 13.0586 45.8898 13.0398 45.9462 13.0398H46.7167C46.7668 13.0398 46.8106 13.0649 46.8482 13.115C46.8796 13.1401 46.9485 13.1996 47.055 13.2935C47.1677 13.3875 47.293 13.4627 47.4308 13.5191C47.5749 13.5692 47.7315 13.5942 47.9006 13.5942C48.1512 13.5942 48.3548 13.5472 48.5114 13.4533C48.668 13.3531 48.7463 13.2121 48.7463 13.0304C48.7463 12.9052 48.7087 12.8049 48.6336 12.7298C48.5647 12.6483 48.4362 12.5763 48.2483 12.5136C48.0666 12.4447 47.791 12.3696 47.4214 12.2881C46.889 12.1754 46.4943 12.0031 46.2375 11.7713C45.9869 11.5395 45.8616 11.2326 45.8616 10.8505C45.8616 10.5999 45.9368 10.365 46.0871 10.1457C46.2375 9.9202 46.4598 9.73853 46.7543 9.60071C47.055 9.45663 47.412 9.38459 47.8255 9.38459C48.2514 9.38459 48.6179 9.4535 48.9249 9.59132C49.2318 9.72287 49.4636 9.88261 49.6202 10.0705C49.7831 10.2585 49.8645 10.4245 49.8645 10.5686C49.8645 10.6249 49.8426 10.675 49.7987 10.7189C49.7612 10.7565 49.7142 10.7753 49.6578 10.7753H48.9531C48.8841 10.7753 48.8309 10.7502 48.7933 10.7001C48.7495 10.6688 48.6774 10.6124 48.5772 10.531C48.4832 10.4433 48.3767 10.3744 48.2577 10.3242C48.1387 10.2741 47.9946 10.2491 47.8255 10.2491C47.5937 10.2491 47.4152 10.2992 47.2899 10.3994C47.1646 10.4996 47.1019 10.6312 47.1019 10.7941C47.1019 10.9068 47.1301 11.0008 47.1865 11.076C47.2492 11.1511 47.3713 11.2232 47.553 11.2921C47.7346 11.3547 48.0071 11.4205 48.3705 11.4894C49.4981 11.7087 50.0618 12.2004 50.0618 12.9647C50.0618 13.4094 49.8676 13.7696 49.4793 14.0453C49.0971 14.3209 48.5615 14.4587 47.8725 14.4587ZM52.9203 14.3647C52.8138 14.3647 52.7261 14.3397 52.6572 14.2896C52.5945 14.2332 52.5507 14.1643 52.5256 14.0829L50.6275 8.06908L50.6087 7.98451C50.6087 7.9344 50.6275 7.89055 50.6651 7.85296C50.709 7.80911 50.7591 7.78719 50.8155 7.78719H52.0464C52.1404 7.78719 52.2156 7.81538 52.2719 7.87176C52.3346 7.92187 52.3753 7.97825 52.3941 8.04089L53.672 12.2881L54.9593 8.04089C54.9781 7.97198 55.0157 7.91247 55.0721 7.86236C55.1347 7.81224 55.213 7.78719 55.307 7.78719H56.5379C56.5943 7.78719 56.6413 7.80911 56.6789 7.85296C56.7165 7.89055 56.7353 7.9344 56.7353 7.98451C56.7353 8.01584 56.7321 8.04402 56.7259 8.06908L54.8184 14.0829C54.7996 14.1643 54.7557 14.2332 54.6868 14.2896C54.6242 14.3397 54.5396 14.3647 54.4331 14.3647H52.9203ZM57.8278 14.3647C57.7651 14.3647 57.7087 14.3428 57.6586 14.299C57.6148 14.2489 57.5929 14.1925 57.5929 14.1298V8.0315C57.5929 7.96259 57.6148 7.90621 57.6586 7.86236C57.7025 7.81224 57.7589 7.78719 57.8278 7.78719H60.487C61.3013 7.78719 61.9403 7.97198 62.4039 8.34158C62.8674 8.71118 63.0992 9.25304 63.0992 9.96718C63.0992 10.6813 62.8674 11.2169 62.4039 11.574C61.9403 11.9248 61.3013 12.1002 60.487 12.1002H59.4158V14.1298C59.4158 14.1925 59.3939 14.2489 59.35 14.299C59.3062 14.3428 59.2498 14.3647 59.1809 14.3647H57.8278ZM60.44 10.7565C60.6968 10.7565 60.8973 10.6907 61.0414 10.5592C61.1917 10.4213 61.2669 10.2209 61.2669 9.95778C61.2669 9.71347 61.198 9.51615 61.0602 9.3658C60.9286 9.21546 60.7219 9.14028 60.44 9.14028H59.3876V10.7565H60.44ZM64.2053 14.3647C64.1426 14.3647 64.0863 14.3428 64.0361 14.299C63.9923 14.2489 63.9704 14.1925 63.9704 14.1298V8.0315C63.9704 7.96259 63.9923 7.90621 64.0361 7.86236C64.08 7.81224 64.1364 7.78719 64.2053 7.78719H65.2671C65.4112 7.78719 65.5177 7.8467 65.5866 7.96572L67.8041 11.4706V8.0315C67.8041 7.96259 67.8261 7.90621 67.8699 7.86236C67.9138 7.81224 67.9702 7.78719 68.0391 7.78719H69.2324C69.3013 7.78719 69.3577 7.81224 69.4016 7.86236C69.4454 7.90621 69.4673 7.96259 69.4673 8.0315V14.1204C69.4673 14.1893 69.4454 14.2489 69.4016 14.299C69.3577 14.3428 69.3013 14.3647 69.2324 14.3647H68.1706C68.0265 14.3647 67.92 14.3052 67.8511 14.1862L65.6429 10.8223V14.1298C65.6429 14.1987 65.6179 14.2551 65.5678 14.299C65.5239 14.3428 65.4675 14.3647 65.3986 14.3647H64.2053Z" fill="#0B132A"/>
<path d="M15.1075 8.90327L15.0973 8.89304C15.0964 8.89247 15.0958 8.8917 15.0954 8.89081L8.69592 2.49121L2.29654 8.89065C2.2958 8.89139 2.29465 8.89287 2.29465 8.89287L2.28409 8.9031C1.30553 9.88715 0.683981 11.1701 0.518242 12.5479C0.352502 13.9258 0.652086 15.3195 1.36937 16.5076C2.08665 17.6956 3.18046 18.6099 4.47693 19.1048C5.7734 19.5998 7.19812 19.6472 8.52461 19.2394C8.63623 19.2053 8.75554 19.2053 8.86717 19.2394C10.1936 19.647 11.6182 19.5996 12.9146 19.1046C14.211 18.6095 15.3047 17.6954 16.0219 16.5074C16.7391 15.3194 17.0388 13.9258 16.8731 12.548C16.7074 11.1702 16.0859 9.88732 15.1075 8.90327ZM4.57208 13.1233C4.54092 13.1544 4.51622 13.1915 4.49937 13.2321C4.48251 13.2728 4.47384 13.3164 4.47384 13.3604C4.48523 14.4899 4.80443 15.5948 5.39709 16.5564C5.41055 16.5782 5.41677 16.6038 5.41487 16.6293C5.41296 16.6548 5.40302 16.6791 5.38646 16.6987C5.36991 16.7183 5.34759 16.7321 5.3227 16.7382C5.29781 16.7443 5.27163 16.7424 5.24789 16.7328C4.80235 16.5453 4.39759 16.2729 4.05626 15.9307C3.35676 15.2311 2.96351 14.2824 2.96288 13.2931C2.96224 12.3038 3.35427 11.3546 4.05288 10.6541L8.69592 6.01149L13.3387 10.6541C14.0374 11.3545 14.4296 12.3037 14.4289 13.2931C14.4284 14.2824 14.035 15.2311 13.3355 15.9307C12.9942 16.2729 12.5894 16.5453 12.144 16.7328C12.1202 16.7424 12.094 16.7443 12.0691 16.7382C12.0442 16.7321 12.0219 16.7182 12.0053 16.6987C11.9888 16.6791 11.9788 16.6548 11.9769 16.6292C11.975 16.6037 11.9812 16.5781 11.9947 16.5563C12.5874 15.5948 12.9068 14.4899 12.9184 13.3604C12.9184 13.3164 12.9096 13.2728 12.8927 13.232C12.8757 13.1913 12.851 13.1544 12.8197 13.1232L10.6236 10.7938C10.6017 10.7756 10.5742 10.7656 10.5457 10.7656C10.5173 10.7656 10.4897 10.7756 10.4679 10.7938C10.446 10.812 10.4313 10.8374 10.4262 10.8654C10.421 10.8934 10.4259 10.9223 10.44 10.947C11.2929 12.4905 10.5594 14.7075 9.33635 15.9307L9.3299 15.9372C9.16109 16.1042 8.93319 16.1978 8.69575 16.1977C8.45828 16.1976 8.23044 16.1038 8.06175 15.9368L8.05581 15.9307C6.83227 14.7075 6.09922 12.4907 6.95227 10.9474C6.9663 10.9226 6.97119 10.8937 6.96608 10.8657C6.96098 10.8377 6.94622 10.8124 6.92436 10.7942C6.9025 10.7759 6.87495 10.7659 6.84648 10.7659C6.81801 10.7659 6.79045 10.7759 6.76859 10.7942L4.57208 13.1233Z" fill="#F53838"/>
<path d="M235.274 13.5396C235.223 13.5396 235.183 13.5245 235.153 13.4944C235.123 13.4594 235.108 13.4168 235.108 13.3667V8.45792C235.108 8.40279 235.123 8.36019 235.153 8.33012C235.183 8.29504 235.223 8.2775 235.274 8.2775H237.175C237.742 8.2775 238.185 8.41532 238.506 8.69095C238.832 8.96157 238.995 9.35748 238.995 9.87867C238.995 10.3999 238.832 10.7958 238.506 11.0664C238.185 11.337 237.742 11.4723 237.175 11.4723H235.822V13.3667C235.822 13.4168 235.805 13.4594 235.77 13.4944C235.74 13.5245 235.7 13.5396 235.649 13.5396H235.274ZM237.138 10.8634C237.895 10.8634 238.273 10.5352 238.273 9.87867C238.273 9.55793 238.178 9.31237 237.987 9.14198C237.802 8.97159 237.519 8.8864 237.138 8.8864H235.822V10.8634H237.138ZM239.999 13.5396C239.949 13.5396 239.906 13.5245 239.871 13.4944C239.841 13.4594 239.826 13.4168 239.826 13.3667V9.81101C239.826 9.7609 239.841 9.7183 239.871 9.68322C239.906 9.64814 239.949 9.6306 239.999 9.6306H240.315C240.37 9.6306 240.413 9.64814 240.443 9.68322C240.478 9.71329 240.495 9.75589 240.495 9.81101V10.1418C240.701 9.80099 241.049 9.6306 241.54 9.6306H241.833C241.888 9.6306 241.931 9.64564 241.961 9.6757C241.991 9.70577 242.006 9.74837 242.006 9.8035V10.0816C242.006 10.1317 241.991 10.1743 241.961 10.2094C241.931 10.2395 241.888 10.2545 241.833 10.2545H241.405C241.129 10.2545 240.911 10.3347 240.751 10.4951C240.595 10.6554 240.518 10.8734 240.518 11.1491V13.3667C240.518 13.4168 240.5 13.4594 240.465 13.4944C240.43 13.5245 240.387 13.5396 240.337 13.5396H239.999ZM242.765 8.89391C242.715 8.89391 242.672 8.87888 242.637 8.84881C242.607 8.81373 242.592 8.77113 242.592 8.72102V8.33012C242.592 8.28001 242.607 8.23741 242.637 8.20233C242.672 8.16725 242.715 8.14971 242.765 8.14971H243.209C243.259 8.14971 243.301 8.16725 243.337 8.20233C243.372 8.23741 243.389 8.28001 243.389 8.33012V8.72102C243.389 8.77113 243.372 8.81373 243.337 8.84881C243.301 8.87888 243.259 8.89391 243.209 8.89391H242.765ZM242.825 13.5396C242.775 13.5396 242.733 13.5245 242.698 13.4944C242.667 13.4594 242.652 13.4168 242.652 13.3667V9.8035C242.652 9.75338 242.667 9.71329 242.698 9.68322C242.733 9.64814 242.775 9.6306 242.825 9.6306H243.156C243.206 9.6306 243.246 9.64814 243.276 9.68322C243.311 9.71329 243.329 9.75338 243.329 9.8035V13.3667C243.329 13.4168 243.311 13.4594 243.276 13.4944C243.246 13.5245 243.206 13.5396 243.156 13.5396H242.825ZM246.022 13.6147C245.486 13.6147 245.067 13.4644 244.767 13.1637C244.466 12.858 244.308 12.432 244.293 11.8858L244.285 11.5851L244.293 11.2844C244.308 10.7381 244.466 10.3147 244.767 10.014C245.067 9.70828 245.486 9.55543 246.022 9.55543C246.383 9.55543 246.686 9.62058 246.932 9.75088C247.182 9.87616 247.368 10.034 247.488 10.2245C247.613 10.4149 247.681 10.6053 247.691 10.7958C247.696 10.8409 247.678 10.881 247.638 10.916C247.603 10.9511 247.563 10.9687 247.518 10.9687H247.187C247.137 10.9687 247.099 10.9586 247.074 10.9386C247.049 10.9135 247.024 10.8709 246.999 10.8108C246.909 10.5652 246.784 10.3923 246.623 10.2921C246.468 10.1869 246.27 10.1343 246.029 10.1343C245.714 10.1343 245.463 10.232 245.278 10.4274C245.092 10.6229 244.992 10.9211 244.977 11.322L244.97 11.5851L244.977 11.8482C244.992 12.2491 245.092 12.5473 245.278 12.7427C245.463 12.9382 245.714 13.0359 246.029 13.0359C246.275 13.0359 246.475 12.9858 246.631 12.8856C246.786 12.7803 246.909 12.6049 246.999 12.3593C247.024 12.2992 247.049 12.2591 247.074 12.2391C247.099 12.214 247.137 12.2015 247.187 12.2015H247.518C247.563 12.2015 247.603 12.219 247.638 12.2541C247.678 12.2892 247.696 12.3293 247.691 12.3744C247.681 12.5598 247.613 12.7477 247.488 12.9382C247.368 13.1286 247.182 13.289 246.932 13.4193C246.686 13.5496 246.383 13.6147 246.022 13.6147ZM248.704 8.89391C248.654 8.89391 248.611 8.87888 248.576 8.84881C248.546 8.81373 248.531 8.77113 248.531 8.72102V8.33012C248.531 8.28001 248.546 8.23741 248.576 8.20233C248.611 8.16725 248.654 8.14971 248.704 8.14971H249.148C249.198 8.14971 249.24 8.16725 249.275 8.20233C249.31 8.23741 249.328 8.28001 249.328 8.33012V8.72102C249.328 8.77113 249.31 8.81373 249.275 8.84881C249.24 8.87888 249.198 8.89391 249.148 8.89391H248.704ZM248.764 13.5396C248.714 13.5396 248.672 13.5245 248.636 13.4944C248.606 13.4594 248.591 13.4168 248.591 13.3667V9.8035C248.591 9.75338 248.606 9.71329 248.636 9.68322C248.672 9.64814 248.714 9.6306 248.764 9.6306H249.095C249.145 9.6306 249.185 9.64814 249.215 9.68322C249.25 9.71329 249.268 9.75338 249.268 9.8035V13.3667C249.268 13.4168 249.25 13.4594 249.215 13.4944C249.185 13.5245 249.145 13.5396 249.095 13.5396H248.764ZM250.57 13.5396C250.52 13.5396 250.477 13.5245 250.442 13.4944C250.412 13.4594 250.397 13.4168 250.397 13.3667V9.8035C250.397 9.75338 250.412 9.71329 250.442 9.68322C250.477 9.64814 250.52 9.6306 250.57 9.6306H250.893C250.948 9.6306 250.991 9.64564 251.021 9.6757C251.051 9.70577 251.066 9.74837 251.066 9.8035V10.1343C251.217 9.94883 251.39 9.806 251.585 9.70577C251.785 9.60554 252.033 9.55543 252.329 9.55543C252.81 9.55543 253.184 9.71078 253.449 10.0215C253.715 10.3272 253.848 10.7331 253.848 11.2393V13.3667C253.848 13.4168 253.83 13.4594 253.795 13.4944C253.765 13.5245 253.725 13.5396 253.675 13.5396H253.329C253.279 13.5396 253.236 13.5245 253.201 13.4944C253.171 13.4594 253.156 13.4168 253.156 13.3667V11.2844C253.156 10.9236 253.068 10.6429 252.893 10.4425C252.718 10.242 252.467 10.1418 252.141 10.1418C251.82 10.1418 251.565 10.2445 251.374 10.45C251.184 10.6504 251.089 10.9286 251.089 11.2844V13.3667C251.089 13.4168 251.071 13.4594 251.036 13.4944C251.006 13.5245 250.966 13.5396 250.916 13.5396H250.57ZM256.52 15.1933C256.104 15.1933 255.771 15.1232 255.52 14.9829C255.27 14.8425 255.092 14.6822 254.987 14.5018C254.886 14.3213 254.836 14.166 254.836 14.0357C254.836 13.9906 254.854 13.9505 254.889 13.9154C254.924 13.8853 254.964 13.8703 255.009 13.8703H255.34C255.385 13.8703 255.423 13.8803 255.453 13.9004C255.483 13.9254 255.508 13.968 255.528 14.0282C255.668 14.4291 255.986 14.6295 256.483 14.6295C256.858 14.6295 257.137 14.5494 257.317 14.389C257.497 14.2286 257.588 13.9455 257.588 13.5396V13.0209C257.297 13.3917 256.891 13.5771 256.37 13.5771C255.839 13.5771 255.44 13.4067 255.175 13.066C254.914 12.7252 254.776 12.2942 254.761 11.773L254.754 11.5625L254.761 11.3596C254.776 10.8434 254.914 10.4149 255.175 10.0741C255.44 9.72832 255.839 9.55543 256.37 9.55543C256.896 9.55543 257.307 9.74837 257.603 10.1343V9.81101C257.603 9.7609 257.618 9.7183 257.648 9.68322C257.683 9.64814 257.725 9.6306 257.775 9.6306H258.099C258.149 9.6306 258.189 9.64814 258.219 9.68322C258.254 9.7183 258.272 9.7609 258.272 9.81101V13.4569C258.272 14.6145 257.688 15.1933 256.52 15.1933ZM256.505 12.9908C256.856 12.9908 257.119 12.878 257.294 12.6525C257.475 12.422 257.573 12.1464 257.588 11.8256C257.593 11.7805 257.595 11.6928 257.595 11.5625C257.595 11.4372 257.593 11.352 257.588 11.3069C257.573 10.9862 257.475 10.7131 257.294 10.4876C257.119 10.257 256.856 10.1418 256.505 10.1418C256.144 10.1418 255.881 10.257 255.716 10.4876C255.555 10.7131 255.468 11.0063 255.453 11.3671L255.445 11.5625L255.453 11.7655C255.468 12.1263 255.555 12.422 255.716 12.6525C255.881 12.878 256.144 12.9908 256.505 12.9908Z" fill="#4F5665"/>
<path d="M185.472 13.5396C185.422 13.5396 185.382 13.5245 185.352 13.4944C185.322 13.4594 185.307 13.4168 185.307 13.3667V8.45792C185.307 8.40279 185.322 8.36019 185.352 8.33012C185.382 8.29504 185.422 8.2775 185.472 8.2775H188.524C188.579 8.2775 188.622 8.29504 188.652 8.33012C188.687 8.36019 188.704 8.40279 188.704 8.45792V8.73605C188.704 8.78617 188.687 8.82877 188.652 8.86385C188.622 8.89391 188.579 8.90895 188.524 8.90895H186.006V10.6905H188.374C188.429 10.6905 188.471 10.7081 188.502 10.7431C188.537 10.7732 188.554 10.8133 188.554 10.8634V11.1491C188.554 11.1992 188.537 11.2418 188.502 11.2769C188.466 11.3069 188.424 11.322 188.374 11.322H186.006V13.3667C186.006 13.4168 185.988 13.4594 185.953 13.4944C185.918 13.5245 185.876 13.5396 185.825 13.5396H185.472ZM191.059 13.6147C190.548 13.6147 190.14 13.4569 189.834 13.1411C189.528 12.8204 189.36 12.3844 189.33 11.8331L189.323 11.5776L189.33 11.3295C189.36 10.7883 189.528 10.3573 189.834 10.0365C190.14 9.7158 190.548 9.55543 191.059 9.55543C191.611 9.55543 192.037 9.73083 192.337 10.0816C192.643 10.4324 192.796 10.9085 192.796 11.5099V11.6452C192.796 11.6953 192.778 11.7379 192.743 11.773C192.713 11.8031 192.673 11.8181 192.623 11.8181H190.014V11.8858C190.03 12.2115 190.13 12.4896 190.315 12.7202C190.501 12.9507 190.746 13.066 191.052 13.066C191.287 13.066 191.478 13.0209 191.623 12.9307C191.774 12.8354 191.886 12.7377 191.961 12.6375C192.007 12.5773 192.042 12.5423 192.067 12.5322C192.092 12.5172 192.134 12.5097 192.194 12.5097H192.525C192.57 12.5097 192.608 12.5222 192.638 12.5473C192.673 12.5723 192.691 12.6049 192.691 12.645C192.691 12.7553 192.623 12.8881 192.488 13.0434C192.352 13.1988 192.159 13.3341 191.909 13.4493C191.663 13.5596 191.38 13.6147 191.059 13.6147ZM192.112 11.3069V11.2844C192.112 10.9336 192.017 10.6479 191.826 10.4274C191.636 10.2069 191.38 10.0967 191.059 10.0967C190.734 10.0967 190.478 10.2069 190.293 10.4274C190.107 10.6479 190.014 10.9336 190.014 11.2844V11.3069H192.112ZM194.792 13.6147C194.547 13.6147 194.319 13.5646 194.108 13.4644C193.903 13.3641 193.737 13.2288 193.612 13.0584C193.492 12.883 193.432 12.6901 193.432 12.4796C193.432 12.1489 193.567 11.8782 193.838 11.6678C194.108 11.4573 194.477 11.317 194.943 11.2468L196.07 11.0889V10.8709C196.07 10.3548 195.772 10.0967 195.176 10.0967C194.945 10.0967 194.76 10.1443 194.619 10.2395C194.479 10.3297 194.376 10.4374 194.311 10.5627C194.291 10.6129 194.269 10.6479 194.244 10.668C194.224 10.683 194.194 10.6905 194.153 10.6905H193.86C193.815 10.6905 193.775 10.6755 193.74 10.6454C193.71 10.6103 193.695 10.5703 193.695 10.5251C193.695 10.4099 193.747 10.2771 193.853 10.1267C193.963 9.97138 194.131 9.83858 194.356 9.72832C194.582 9.61306 194.858 9.55543 195.183 9.55543C195.745 9.55543 196.145 9.68573 196.386 9.94632C196.632 10.2069 196.754 10.5327 196.754 10.9236V13.3667C196.754 13.4168 196.737 13.4594 196.702 13.4944C196.672 13.5245 196.632 13.5396 196.581 13.5396H196.251C196.201 13.5396 196.161 13.5245 196.13 13.4944C196.1 13.4594 196.085 13.4168 196.085 13.3667V13.0359C195.975 13.2013 195.815 13.3391 195.604 13.4493C195.394 13.5596 195.123 13.6147 194.792 13.6147ZM194.943 13.066C195.273 13.066 195.544 12.9582 195.755 12.7427C195.965 12.5272 196.07 12.214 196.07 11.8031V11.5926L195.191 11.7204C194.83 11.7705 194.557 11.8557 194.371 11.976C194.186 12.0962 194.093 12.2466 194.093 12.427C194.093 12.6325 194.176 12.7903 194.341 12.9006C194.512 13.0108 194.712 13.066 194.943 13.066ZM199.31 13.5396C198.533 13.5396 198.144 13.101 198.144 12.224V10.2094H197.551C197.5 10.2094 197.46 10.1944 197.43 10.1643C197.4 10.1343 197.385 10.0942 197.385 10.044V9.8035C197.385 9.75338 197.4 9.71329 197.43 9.68322C197.46 9.64814 197.5 9.6306 197.551 9.6306H198.144V8.37523C198.144 8.32511 198.16 8.28502 198.19 8.25495C198.22 8.21987 198.26 8.20233 198.31 8.20233H198.641C198.691 8.20233 198.731 8.21987 198.761 8.25495C198.796 8.28502 198.814 8.32511 198.814 8.37523V9.6306H199.746C199.796 9.6306 199.836 9.64814 199.866 9.68322C199.901 9.71329 199.919 9.75338 199.919 9.8035V10.044C199.919 10.0942 199.901 10.1343 199.866 10.1643C199.836 10.1944 199.796 10.2094 199.746 10.2094H198.814V12.1714C198.814 12.427 198.854 12.6199 198.934 12.7502C199.019 12.8805 199.162 12.9457 199.362 12.9457H199.821C199.871 12.9457 199.911 12.9632 199.941 12.9983C199.971 13.0284 199.986 13.0685 199.986 13.1186V13.3667C199.986 13.4168 199.971 13.4594 199.941 13.4944C199.911 13.5245 199.871 13.5396 199.821 13.5396H199.31ZM202.179 13.6147C201.703 13.6147 201.334 13.4619 201.074 13.1562C200.813 12.8455 200.683 12.4345 200.683 11.9234V9.8035C200.683 9.75338 200.698 9.71329 200.728 9.68322C200.763 9.64814 200.806 9.6306 200.856 9.6306H201.202C201.252 9.6306 201.292 9.64814 201.322 9.68322C201.357 9.71329 201.375 9.75338 201.375 9.8035V11.8858C201.375 12.6475 201.705 13.0284 202.367 13.0284C202.688 13.0284 202.941 12.9282 203.126 12.7277C203.317 12.5222 203.412 12.2416 203.412 11.8858V9.8035C203.412 9.75338 203.427 9.71329 203.457 9.68322C203.492 9.64814 203.535 9.6306 203.585 9.6306H203.93C203.981 9.6306 204.021 9.64814 204.051 9.68322C204.086 9.71329 204.103 9.75338 204.103 9.8035V13.3667C204.103 13.4168 204.086 13.4594 204.051 13.4944C204.021 13.5245 203.981 13.5396 203.93 13.5396H203.607C203.557 13.5396 203.514 13.5245 203.479 13.4944C203.449 13.4594 203.434 13.4168 203.434 13.3667V13.0284C203.289 13.2238 203.119 13.3717 202.923 13.4719C202.728 13.5671 202.48 13.6147 202.179 13.6147ZM205.401 13.5396C205.351 13.5396 205.308 13.5245 205.273 13.4944C205.243 13.4594 205.228 13.4168 205.228 13.3667V9.81101C205.228 9.7609 205.243 9.7183 205.273 9.68322C205.308 9.64814 205.351 9.6306 205.401 9.6306H205.717C205.772 9.6306 205.814 9.64814 205.844 9.68322C205.879 9.71329 205.897 9.75589 205.897 9.81101V10.1418C206.102 9.80099 206.451 9.6306 206.942 9.6306H207.235C207.29 9.6306 207.333 9.64564 207.363 9.6757C207.393 9.70577 207.408 9.74837 207.408 9.8035V10.0816C207.408 10.1317 207.393 10.1743 207.363 10.2094C207.333 10.2395 207.29 10.2545 207.235 10.2545H206.807C206.531 10.2545 206.313 10.3347 206.153 10.4951C205.997 10.6554 205.92 10.8734 205.92 11.1491V13.3667C205.92 13.4168 205.902 13.4594 205.867 13.4944C205.832 13.5245 205.789 13.5396 205.739 13.5396H205.401ZM209.529 13.6147C209.018 13.6147 208.61 13.4569 208.304 13.1411C207.998 12.8204 207.831 12.3844 207.8 11.8331L207.793 11.5776L207.8 11.3295C207.831 10.7883 207.998 10.3573 208.304 10.0365C208.61 9.7158 209.018 9.55543 209.529 9.55543C210.081 9.55543 210.507 9.73083 210.807 10.0816C211.113 10.4324 211.266 10.9085 211.266 11.5099V11.6452C211.266 11.6953 211.248 11.7379 211.213 11.773C211.183 11.8031 211.143 11.8181 211.093 11.8181H208.485V11.8858C208.5 12.2115 208.6 12.4896 208.785 12.7202C208.971 12.9507 209.216 13.066 209.522 13.066C209.757 13.066 209.948 13.0209 210.093 12.9307C210.244 12.8354 210.356 12.7377 210.431 12.6375C210.477 12.5773 210.512 12.5423 210.537 12.5322C210.562 12.5172 210.604 12.5097 210.664 12.5097H210.995C211.04 12.5097 211.078 12.5222 211.108 12.5473C211.143 12.5723 211.161 12.6049 211.161 12.645C211.161 12.7553 211.093 12.8881 210.958 13.0434C210.822 13.1988 210.629 13.3341 210.379 13.4493C210.133 13.5596 209.85 13.6147 209.529 13.6147ZM210.582 11.3069V11.2844C210.582 10.9336 210.487 10.6479 210.296 10.4274C210.106 10.2069 209.85 10.0967 209.529 10.0967C209.204 10.0967 208.948 10.2069 208.763 10.4274C208.577 10.6479 208.485 10.9336 208.485 11.2844V11.3069H210.582ZM213.518 13.6147C213.172 13.6147 212.879 13.5596 212.638 13.4493C212.403 13.3341 212.228 13.2038 212.112 13.0584C211.997 12.9131 211.939 12.7928 211.939 12.6976C211.939 12.6475 211.957 12.6099 211.992 12.5849C212.027 12.5548 212.065 12.5398 212.105 12.5398H212.42C212.451 12.5398 212.473 12.5448 212.488 12.5548C212.508 12.5648 212.533 12.5874 212.563 12.6225C212.679 12.7628 212.806 12.873 212.947 12.9532C213.092 13.0334 213.285 13.0735 213.526 13.0735C213.796 13.0735 214.012 13.0234 214.172 12.9231C214.337 12.8229 214.42 12.6776 214.42 12.4871C214.42 12.3619 214.385 12.2616 214.315 12.1865C214.245 12.1113 214.127 12.0436 213.962 11.9835C213.801 11.9234 213.561 11.8582 213.24 11.788C212.804 11.6928 212.496 11.555 212.315 11.3746C212.135 11.1942 212.045 10.9611 212.045 10.6755C212.045 10.4901 212.1 10.3122 212.21 10.1418C212.32 9.96637 212.483 9.82605 212.699 9.72081C212.919 9.61056 213.18 9.55543 213.48 9.55543C213.796 9.55543 214.064 9.60805 214.285 9.71329C214.51 9.81853 214.678 9.94131 214.788 10.0816C214.904 10.222 214.961 10.3397 214.961 10.4349C214.961 10.48 214.944 10.5176 214.909 10.5477C214.879 10.5778 214.841 10.5928 214.796 10.5928H214.51C214.44 10.5928 214.39 10.5652 214.36 10.5101C214.275 10.4149 214.202 10.3422 214.142 10.2921C214.087 10.237 214.004 10.1919 213.894 10.1568C213.784 10.1167 213.646 10.0967 213.48 10.0967C213.235 10.0967 213.047 10.1493 212.917 10.2545C212.786 10.3548 212.721 10.4901 212.721 10.6605C212.721 10.7657 212.749 10.8559 212.804 10.9311C212.859 11.0012 212.964 11.0689 213.12 11.134C213.275 11.1942 213.505 11.2568 213.811 11.322C214.287 11.4222 214.623 11.565 214.818 11.7505C215.019 11.9359 215.119 12.1739 215.119 12.4646C215.119 12.6801 215.057 12.8755 214.931 13.0509C214.811 13.2263 214.628 13.3641 214.382 13.4644C214.142 13.5646 213.854 13.6147 213.518 13.6147Z" fill="#4F5665"/>
<path d="M279.656 13.5396C279.606 13.5396 279.563 13.5245 279.528 13.4944C279.498 13.4594 279.483 13.4168 279.483 13.3667V8.92398H278.032C277.982 8.92398 277.939 8.90895 277.904 8.87888C277.874 8.8438 277.859 8.8012 277.859 8.75109V8.45792C277.859 8.40279 277.874 8.36019 277.904 8.33012C277.939 8.29504 277.982 8.2775 278.032 8.2775H281.64C281.695 8.2775 281.738 8.29504 281.768 8.33012C281.798 8.36019 281.813 8.40279 281.813 8.45792V8.75109C281.813 8.8012 281.796 8.8438 281.761 8.87888C281.73 8.90895 281.69 8.92398 281.64 8.92398H280.197V13.3667C280.197 13.4168 280.179 13.4594 280.144 13.4944C280.109 13.5245 280.067 13.5396 280.017 13.5396H279.656ZM283.403 13.6147C282.891 13.6147 282.483 13.4569 282.177 13.1411C281.872 12.8204 281.704 12.3844 281.674 11.8331L281.666 11.5776L281.674 11.3295C281.704 10.7883 281.872 10.3573 282.177 10.0365C282.483 9.7158 282.891 9.55543 283.403 9.55543C283.954 9.55543 284.38 9.73083 284.681 10.0816C284.986 10.4324 285.139 10.9085 285.139 11.5099V11.6452C285.139 11.6953 285.122 11.7379 285.086 11.773C285.056 11.8031 285.016 11.8181 284.966 11.8181H282.358V11.8858C282.373 12.2115 282.473 12.4896 282.658 12.7202C282.844 12.9507 283.089 13.066 283.395 13.066C283.631 13.066 283.821 13.0209 283.966 12.9307C284.117 12.8354 284.229 12.7377 284.305 12.6375C284.35 12.5773 284.385 12.5423 284.41 12.5322C284.435 12.5172 284.478 12.5097 284.538 12.5097H284.868C284.914 12.5097 284.951 12.5222 284.981 12.5473C285.016 12.5723 285.034 12.6049 285.034 12.645C285.034 12.7553 284.966 12.8881 284.831 13.0434C284.696 13.1988 284.503 13.3341 284.252 13.4493C284.006 13.5596 283.723 13.6147 283.403 13.6147ZM284.455 11.3069V11.2844C284.455 10.9336 284.36 10.6479 284.169 10.4274C283.979 10.2069 283.723 10.0967 283.403 10.0967C283.077 10.0967 282.821 10.2069 282.636 10.4274C282.45 10.6479 282.358 10.9336 282.358 11.2844V11.3069H284.455ZM287.391 13.6147C287.045 13.6147 286.752 13.5596 286.512 13.4493C286.276 13.3341 286.101 13.2038 285.985 13.0584C285.87 12.9131 285.813 12.7928 285.813 12.6976C285.813 12.6475 285.83 12.6099 285.865 12.5849C285.9 12.5548 285.938 12.5398 285.978 12.5398H286.294C286.324 12.5398 286.346 12.5448 286.361 12.5548C286.381 12.5648 286.406 12.5874 286.437 12.6225C286.552 12.7628 286.68 12.873 286.82 12.9532C286.965 13.0334 287.158 13.0735 287.399 13.0735C287.669 13.0735 287.885 13.0234 288.045 12.9231C288.211 12.8229 288.293 12.6776 288.293 12.4871C288.293 12.3619 288.258 12.2616 288.188 12.1865C288.118 12.1113 288 12.0436 287.835 11.9835C287.674 11.9234 287.434 11.8582 287.113 11.788C286.677 11.6928 286.369 11.555 286.188 11.3746C286.008 11.1942 285.918 10.9611 285.918 10.6755C285.918 10.4901 285.973 10.3122 286.083 10.1418C286.193 9.96637 286.356 9.82605 286.572 9.72081C286.792 9.61056 287.053 9.55543 287.354 9.55543C287.669 9.55543 287.937 9.60805 288.158 9.71329C288.383 9.81853 288.551 9.94131 288.662 10.0816C288.777 10.222 288.834 10.3397 288.834 10.4349C288.834 10.48 288.817 10.5176 288.782 10.5477C288.752 10.5778 288.714 10.5928 288.669 10.5928H288.383C288.313 10.5928 288.263 10.5652 288.233 10.5101C288.148 10.4149 288.075 10.3422 288.015 10.2921C287.96 10.237 287.877 10.1919 287.767 10.1568C287.657 10.1167 287.519 10.0967 287.354 10.0967C287.108 10.0967 286.92 10.1493 286.79 10.2545C286.66 10.3548 286.594 10.4901 286.594 10.6605C286.594 10.7657 286.622 10.8559 286.677 10.9311C286.732 11.0012 286.837 11.0689 286.993 11.134C287.148 11.1942 287.379 11.2568 287.684 11.322C288.16 11.4222 288.496 11.565 288.692 11.7505C288.892 11.9359 288.992 12.1739 288.992 12.4646C288.992 12.6801 288.93 12.8755 288.804 13.0509C288.684 13.2263 288.501 13.3641 288.256 13.4644C288.015 13.5646 287.727 13.6147 287.391 13.6147ZM291.367 13.5396C290.59 13.5396 290.201 13.101 290.201 12.224V10.2094H289.608C289.557 10.2094 289.517 10.1944 289.487 10.1643C289.457 10.1343 289.442 10.0942 289.442 10.044V9.8035C289.442 9.75338 289.457 9.71329 289.487 9.68322C289.517 9.64814 289.557 9.6306 289.608 9.6306H290.201V8.37523C290.201 8.32511 290.216 8.28502 290.246 8.25495C290.277 8.21987 290.317 8.20233 290.367 8.20233H290.698C290.748 8.20233 290.788 8.21987 290.818 8.25495C290.853 8.28502 290.87 8.32511 290.87 8.37523V9.6306H291.803C291.853 9.6306 291.893 9.64814 291.923 9.68322C291.958 9.71329 291.975 9.75338 291.975 9.8035V10.044C291.975 10.0942 291.958 10.1343 291.923 10.1643C291.893 10.1944 291.853 10.2094 291.803 10.2094H290.87V12.1714C290.87 12.427 290.911 12.6199 290.991 12.7502C291.076 12.8805 291.219 12.9457 291.419 12.9457H291.878C291.928 12.9457 291.968 12.9632 291.998 12.9983C292.028 13.0284 292.043 13.0685 292.043 13.1186V13.3667C292.043 13.4168 292.028 13.4594 291.998 13.4944C291.968 13.5245 291.928 13.5396 291.878 13.5396H291.367ZM292.89 8.89391C292.84 8.89391 292.798 8.87888 292.762 8.84881C292.732 8.81373 292.717 8.77113 292.717 8.72102V8.33012C292.717 8.28001 292.732 8.23741 292.762 8.20233C292.798 8.16725 292.84 8.14971 292.89 8.14971H293.334C293.384 8.14971 293.426 8.16725 293.462 8.20233C293.497 8.23741 293.514 8.28001 293.514 8.33012V8.72102C293.514 8.77113 293.497 8.81373 293.462 8.84881C293.426 8.87888 293.384 8.89391 293.334 8.89391H292.89ZM292.95 13.5396C292.9 13.5396 292.858 13.5245 292.823 13.4944C292.793 13.4594 292.778 13.4168 292.778 13.3667V9.8035C292.778 9.75338 292.793 9.71329 292.823 9.68322C292.858 9.64814 292.9 9.6306 292.95 9.6306H293.281C293.331 9.6306 293.371 9.64814 293.401 9.68322C293.437 9.71329 293.454 9.75338 293.454 9.8035V13.3667C293.454 13.4168 293.437 13.4594 293.401 13.4944C293.371 13.5245 293.331 13.5396 293.281 13.5396H292.95ZM294.756 13.5396C294.706 13.5396 294.664 13.5245 294.629 13.4944C294.598 13.4594 294.583 13.4168 294.583 13.3667V9.8035C294.583 9.75338 294.598 9.71329 294.629 9.68322C294.664 9.64814 294.706 9.6306 294.756 9.6306H295.072C295.122 9.6306 295.162 9.64814 295.192 9.68322C295.222 9.71329 295.237 9.75338 295.237 9.8035V10.0591C295.508 9.72331 295.874 9.55543 296.335 9.55543C296.886 9.55543 297.277 9.78596 297.508 10.247C297.628 10.0365 297.798 9.86865 298.019 9.74336C298.244 9.61807 298.495 9.55543 298.77 9.55543C299.181 9.55543 299.517 9.69575 299.778 9.97639C300.038 10.257 300.169 10.663 300.169 11.1942V13.3667C300.169 13.4168 300.151 13.4594 300.116 13.4944C300.086 13.5245 300.046 13.5396 299.996 13.5396H299.673C299.622 13.5396 299.58 13.5245 299.545 13.4944C299.515 13.4594 299.5 13.4168 299.5 13.3667V11.2618C299.5 10.8609 299.417 10.5753 299.252 10.4049C299.086 10.2295 298.868 10.1418 298.598 10.1418C298.357 10.1418 298.149 10.232 297.974 10.4124C297.803 10.5878 297.718 10.8709 297.718 11.2618V13.3667C297.718 13.4168 297.701 13.4594 297.665 13.4944C297.635 13.5245 297.595 13.5396 297.545 13.5396H297.214C297.164 13.5396 297.122 13.5245 297.087 13.4944C297.057 13.4594 297.042 13.4168 297.042 13.3667V11.2618C297.042 10.8659 296.954 10.5803 296.778 10.4049C296.608 10.2295 296.395 10.1418 296.139 10.1418C295.899 10.1418 295.691 10.2295 295.516 10.4049C295.345 10.5803 295.26 10.8634 295.26 11.2543V13.3667C295.26 13.4168 295.242 13.4594 295.207 13.4944C295.177 13.5245 295.137 13.5396 295.087 13.5396H294.756ZM302.843 13.6147C302.291 13.6147 301.865 13.4594 301.565 13.1487C301.269 12.8379 301.111 12.4245 301.091 11.9083L301.083 11.5851L301.091 11.2618C301.111 10.7457 301.271 10.3322 301.572 10.0215C301.878 9.71078 302.301 9.55543 302.843 9.55543C303.384 9.55543 303.805 9.71078 304.105 10.0215C304.411 10.3322 304.574 10.7457 304.594 11.2618C304.604 11.3721 304.609 11.4798 304.609 11.5851C304.609 11.6903 304.604 11.7981 304.594 11.9083C304.574 12.4245 304.414 12.8379 304.113 13.1487C303.817 13.4594 303.394 13.6147 302.843 13.6147ZM302.843 13.0509C303.163 13.0509 303.416 12.9507 303.602 12.7502C303.792 12.5448 303.895 12.2516 303.91 11.8707C303.915 11.8206 303.917 11.7254 303.917 11.5851C303.917 11.4448 303.915 11.3495 303.91 11.2994C303.895 10.9185 303.792 10.6279 303.602 10.4274C303.416 10.222 303.163 10.1192 302.843 10.1192C302.522 10.1192 302.266 10.222 302.076 10.4274C301.89 10.6279 301.79 10.9185 301.775 11.2994L301.768 11.5851L301.775 11.8707C301.79 12.2516 301.89 12.5448 302.076 12.7502C302.266 12.9507 302.522 13.0509 302.843 13.0509ZM305.731 13.5396C305.681 13.5396 305.638 13.5245 305.603 13.4944C305.573 13.4594 305.558 13.4168 305.558 13.3667V9.8035C305.558 9.75338 305.573 9.71329 305.603 9.68322C305.638 9.64814 305.681 9.6306 305.731 9.6306H306.054C306.109 9.6306 306.152 9.64564 306.182 9.6757C306.212 9.70577 306.227 9.74837 306.227 9.8035V10.1343C306.378 9.94883 306.551 9.806 306.746 9.70577C306.946 9.60554 307.194 9.55543 307.49 9.55543C307.971 9.55543 308.345 9.71078 308.61 10.0215C308.876 10.3272 309.009 10.7331 309.009 11.2393V13.3667C309.009 13.4168 308.991 13.4594 308.956 13.4944C308.926 13.5245 308.886 13.5396 308.836 13.5396H308.49C308.44 13.5396 308.397 13.5245 308.362 13.4944C308.332 13.4594 308.317 13.4168 308.317 13.3667V11.2844C308.317 10.9236 308.229 10.6429 308.054 10.4425C307.879 10.242 307.628 10.1418 307.302 10.1418C306.981 10.1418 306.726 10.2445 306.535 10.45C306.345 10.6504 306.25 10.9286 306.25 11.2844V13.3667C306.25 13.4168 306.232 13.4594 306.197 13.4944C306.167 13.5245 306.127 13.5396 306.077 13.5396H305.731ZM310.208 8.89391C310.158 8.89391 310.115 8.87888 310.08 8.84881C310.05 8.81373 310.035 8.77113 310.035 8.72102V8.33012C310.035 8.28001 310.05 8.23741 310.08 8.20233C310.115 8.16725 310.158 8.14971 310.208 8.14971H310.651C310.701 8.14971 310.744 8.16725 310.779 8.20233C310.814 8.23741 310.832 8.28001 310.832 8.33012V8.72102C310.832 8.77113 310.814 8.81373 310.779 8.84881C310.744 8.87888 310.701 8.89391 310.651 8.89391H310.208ZM310.268 13.5396C310.218 13.5396 310.175 13.5245 310.14 13.4944C310.11 13.4594 310.095 13.4168 310.095 13.3667V9.8035C310.095 9.75338 310.11 9.71329 310.14 9.68322C310.175 9.64814 310.218 9.6306 310.268 9.6306H310.599C310.649 9.6306 310.689 9.64814 310.719 9.68322C310.754 9.71329 310.772 9.75338 310.772 9.8035V13.3667C310.772 13.4168 310.754 13.4594 310.719 13.4944C310.689 13.5245 310.649 13.5396 310.599 13.5396H310.268ZM312.983 13.6147C312.738 13.6147 312.51 13.5646 312.299 13.4644C312.094 13.3641 311.928 13.2288 311.803 13.0584C311.683 12.883 311.623 12.6901 311.623 12.4796C311.623 12.1489 311.758 11.8782 312.029 11.6678C312.299 11.4573 312.668 11.317 313.134 11.2468L314.261 11.0889V10.8709C314.261 10.3548 313.963 10.0967 313.367 10.0967C313.136 10.0967 312.951 10.1443 312.81 10.2395C312.67 10.3297 312.567 10.4374 312.502 10.5627C312.482 10.6129 312.46 10.6479 312.435 10.668C312.415 10.683 312.384 10.6905 312.344 10.6905H312.051C312.006 10.6905 311.966 10.6755 311.931 10.6454C311.901 10.6103 311.886 10.5703 311.886 10.5251C311.886 10.4099 311.938 10.2771 312.044 10.1267C312.154 9.97138 312.322 9.83858 312.547 9.72832C312.773 9.61306 313.049 9.55543 313.374 9.55543C313.936 9.55543 314.336 9.68573 314.577 9.94632C314.823 10.2069 314.945 10.5327 314.945 10.9236V13.3667C314.945 13.4168 314.928 13.4594 314.893 13.4944C314.863 13.5245 314.823 13.5396 314.772 13.5396H314.442C314.392 13.5396 314.351 13.5245 314.321 13.4944C314.291 13.4594 314.276 13.4168 314.276 13.3667V13.0359C314.166 13.2013 314.006 13.3391 313.795 13.4493C313.585 13.5596 313.314 13.6147 312.983 13.6147ZM313.134 13.066C313.464 13.066 313.735 12.9582 313.946 12.7427C314.156 12.5272 314.261 12.214 314.261 11.8031V11.5926L313.382 11.7204C313.021 11.7705 312.748 11.8557 312.562 11.976C312.377 12.0962 312.284 12.2466 312.284 12.427C312.284 12.6325 312.367 12.7903 312.532 12.9006C312.703 13.0108 312.903 13.066 313.134 13.066ZM316.214 13.5396C316.164 13.5396 316.122 13.5245 316.086 13.4944C316.056 13.4594 316.041 13.4168 316.041 13.3667V8.37523C316.041 8.3201 316.056 8.2775 316.086 8.24743C316.122 8.21737 316.164 8.20233 316.214 8.20233H316.545C316.595 8.20233 316.635 8.21987 316.665 8.25495C316.7 8.28502 316.718 8.32511 316.718 8.37523V13.3667C316.718 13.4168 316.7 13.4594 316.665 13.4944C316.635 13.5245 316.595 13.5396 316.545 13.5396H316.214ZM319.185 13.6147C318.839 13.6147 318.546 13.5596 318.306 13.4493C318.07 13.3341 317.895 13.2038 317.779 13.0584C317.664 12.9131 317.607 12.7928 317.607 12.6976C317.607 12.6475 317.624 12.6099 317.659 12.5849C317.694 12.5548 317.732 12.5398 317.772 12.5398H318.088C318.118 12.5398 318.14 12.5448 318.155 12.5548C318.175 12.5648 318.2 12.5874 318.23 12.6225C318.346 12.7628 318.474 12.873 318.614 12.9532C318.759 13.0334 318.952 13.0735 319.193 13.0735C319.463 13.0735 319.679 13.0234 319.839 12.9231C320.005 12.8229 320.087 12.6776 320.087 12.4871C320.087 12.3619 320.052 12.2616 319.982 12.1865C319.912 12.1113 319.794 12.0436 319.629 11.9835C319.468 11.9234 319.228 11.8582 318.907 11.788C318.471 11.6928 318.163 11.555 317.982 11.3746C317.802 11.1942 317.712 10.9611 317.712 10.6755C317.712 10.4901 317.767 10.3122 317.877 10.1418C317.987 9.96637 318.15 9.82605 318.366 9.72081C318.586 9.61056 318.847 9.55543 319.148 9.55543C319.463 9.55543 319.731 9.60805 319.952 9.71329C320.177 9.81853 320.345 9.94131 320.456 10.0816C320.571 10.222 320.628 10.3397 320.628 10.4349C320.628 10.48 320.611 10.5176 320.576 10.5477C320.546 10.5778 320.508 10.5928 320.463 10.5928H320.177C320.107 10.5928 320.057 10.5652 320.027 10.5101C319.942 10.4149 319.869 10.3422 319.809 10.2921C319.754 10.237 319.671 10.1919 319.561 10.1568C319.451 10.1167 319.313 10.0967 319.148 10.0967C318.902 10.0967 318.714 10.1493 318.584 10.2545C318.453 10.3548 318.388 10.4901 318.388 10.6605C318.388 10.7657 318.416 10.8559 318.471 10.9311C318.526 11.0012 318.631 11.0689 318.787 11.134C318.942 11.1942 319.173 11.2568 319.478 11.322C319.954 11.4222 320.29 11.565 320.486 11.7505C320.686 11.9359 320.786 12.1739 320.786 12.4646C320.786 12.6801 320.724 12.8755 320.598 13.0509C320.478 13.2263 320.295 13.3641 320.05 13.4644C319.809 13.5646 319.521 13.6147 319.185 13.6147Z" fill="#4F5665"/>
<path d="M144.541 13.5396C144.501 13.5396 144.466 13.5245 144.436 13.4944C144.406 13.4644 144.391 13.4293 144.391 13.3892L144.406 13.3065L146.27 8.44288C146.31 8.33263 146.391 8.2775 146.511 8.2775H146.992C147.112 8.2775 147.192 8.33263 147.232 8.44288L149.097 13.3065L149.112 13.3892C149.112 13.4293 149.094 13.4644 149.059 13.4944C149.029 13.5245 148.994 13.5396 148.954 13.5396H148.601C148.55 13.5396 148.508 13.527 148.473 13.502C148.443 13.4719 148.423 13.4418 148.413 13.4118L147.992 12.3293H145.503L145.09 13.4118C145.05 13.497 144.987 13.5396 144.902 13.5396H144.541ZM145.721 11.7054H147.781L146.751 9.00667L145.721 11.7054ZM151.735 13.6147C151.194 13.6147 150.78 13.4243 150.495 13.0434V13.3667C150.495 13.4168 150.477 13.4594 150.442 13.4944C150.412 13.5245 150.372 13.5396 150.322 13.5396H150.006C149.956 13.5396 149.913 13.5245 149.878 13.4944C149.848 13.4594 149.833 13.4168 149.833 13.3667V8.37523C149.833 8.3201 149.848 8.2775 149.878 8.24743C149.913 8.21737 149.956 8.20233 150.006 8.20233H150.344C150.394 8.20233 150.435 8.21987 150.465 8.25495C150.5 8.28502 150.517 8.32511 150.517 8.37523V10.1117C150.798 9.74085 151.204 9.55543 151.735 9.55543C152.261 9.55543 152.655 9.72832 152.915 10.0741C153.181 10.4149 153.321 10.8434 153.336 11.3596C153.341 11.4147 153.344 11.4899 153.344 11.5851C153.344 11.6803 153.341 11.7555 153.336 11.8106C153.321 12.3268 153.181 12.7578 152.915 13.1036C152.655 13.4443 152.261 13.6147 151.735 13.6147ZM151.592 13.0284C151.953 13.0284 152.216 12.9156 152.382 12.6901C152.547 12.4646 152.637 12.1689 152.652 11.8031C152.657 11.753 152.66 11.6803 152.66 11.5851C152.66 10.6229 152.304 10.1418 151.592 10.1418C151.251 10.1418 150.988 10.2545 150.803 10.48C150.622 10.7006 150.527 10.9637 150.517 11.2694C150.512 11.3245 150.51 11.4222 150.51 11.5625C150.51 11.6978 150.512 11.7931 150.517 11.8482C150.527 12.1689 150.62 12.447 150.795 12.6826C150.976 12.9131 151.241 13.0284 151.592 13.0284ZM155.875 13.6147C155.324 13.6147 154.898 13.4594 154.597 13.1487C154.302 12.8379 154.144 12.4245 154.124 11.9083L154.116 11.5851L154.124 11.2618C154.144 10.7457 154.304 10.3322 154.605 10.0215C154.91 9.71078 155.334 9.55543 155.875 9.55543C156.416 9.55543 156.837 9.71078 157.138 10.0215C157.444 10.3322 157.607 10.7457 157.627 11.2618C157.637 11.3721 157.642 11.4798 157.642 11.5851C157.642 11.6903 157.637 11.7981 157.627 11.9083C157.607 12.4245 157.446 12.8379 157.146 13.1487C156.85 13.4594 156.426 13.6147 155.875 13.6147ZM155.875 13.0509C156.196 13.0509 156.449 12.9507 156.634 12.7502C156.825 12.5448 156.928 12.2516 156.943 11.8707C156.948 11.8206 156.95 11.7254 156.95 11.5851C156.95 11.4448 156.948 11.3495 156.943 11.2994C156.928 10.9185 156.825 10.6279 156.634 10.4274C156.449 10.222 156.196 10.1192 155.875 10.1192C155.554 10.1192 155.299 10.222 155.108 10.4274C154.923 10.6279 154.823 10.9185 154.808 11.2994L154.8 11.5851L154.808 11.8707C154.823 12.2516 154.923 12.5448 155.108 12.7502C155.299 12.9507 155.554 13.0509 155.875 13.0509ZM160.049 13.6147C159.573 13.6147 159.205 13.4619 158.944 13.1562C158.684 12.8455 158.553 12.4345 158.553 11.9234V9.8035C158.553 9.75338 158.568 9.71329 158.598 9.68322C158.633 9.64814 158.676 9.6306 158.726 9.6306H159.072C159.122 9.6306 159.162 9.64814 159.192 9.68322C159.227 9.71329 159.245 9.75338 159.245 9.8035V11.8858C159.245 12.6475 159.576 13.0284 160.237 13.0284C160.558 13.0284 160.811 12.9282 160.996 12.7277C161.187 12.5222 161.282 12.2416 161.282 11.8858V9.8035C161.282 9.75338 161.297 9.71329 161.327 9.68322C161.362 9.64814 161.405 9.6306 161.455 9.6306H161.801C161.851 9.6306 161.891 9.64814 161.921 9.68322C161.956 9.71329 161.974 9.75338 161.974 9.8035V13.3667C161.974 13.4168 161.956 13.4594 161.921 13.4944C161.891 13.5245 161.851 13.5396 161.801 13.5396H161.477C161.427 13.5396 161.385 13.5245 161.35 13.4944C161.32 13.4594 161.305 13.4168 161.305 13.3667V13.0284C161.159 13.2238 160.989 13.3717 160.793 13.4719C160.598 13.5671 160.35 13.6147 160.049 13.6147ZM164.602 13.5396C163.825 13.5396 163.437 13.101 163.437 12.224V10.2094H162.843C162.793 10.2094 162.752 10.1944 162.722 10.1643C162.692 10.1343 162.677 10.0942 162.677 10.044V9.8035C162.677 9.75338 162.692 9.71329 162.722 9.68322C162.752 9.64814 162.793 9.6306 162.843 9.6306H163.437V8.37523C163.437 8.32511 163.452 8.28502 163.482 8.25495C163.512 8.21987 163.552 8.20233 163.602 8.20233H163.933C163.983 8.20233 164.023 8.21987 164.053 8.25495C164.088 8.28502 164.106 8.32511 164.106 8.37523V9.6306H165.038C165.088 9.6306 165.128 9.64814 165.158 9.68322C165.193 9.71329 165.211 9.75338 165.211 9.8035V10.044C165.211 10.0942 165.193 10.1343 165.158 10.1643C165.128 10.1944 165.088 10.2094 165.038 10.2094H164.106V12.1714C164.106 12.427 164.146 12.6199 164.226 12.7502C164.311 12.8805 164.454 12.9457 164.654 12.9457H165.113C165.163 12.9457 165.203 12.9632 165.233 12.9983C165.263 13.0284 165.278 13.0685 165.278 13.1186V13.3667C165.278 13.4168 165.263 13.4594 165.233 13.4944C165.203 13.5245 165.163 13.5396 165.113 13.5396H164.602Z" fill="#4F5665"/>
<path d="M340.985 13.5396C340.935 13.5396 340.895 13.5245 340.865 13.4944C340.835 13.4594 340.819 13.4168 340.819 13.3667V8.45792C340.819 8.40279 340.835 8.36019 340.865 8.33012C340.895 8.29504 340.935 8.2775 340.985 8.2775H341.346C341.401 8.2775 341.443 8.29504 341.473 8.33012C341.509 8.36019 341.526 8.40279 341.526 8.45792V10.5477H344.142V8.45792C344.142 8.40279 344.157 8.36019 344.187 8.33012C344.222 8.29504 344.265 8.2775 344.315 8.2775H344.676C344.731 8.2775 344.774 8.29504 344.804 8.33012C344.839 8.36019 344.856 8.40279 344.856 8.45792V13.3667C344.856 13.4168 344.839 13.4594 344.804 13.4944C344.769 13.5245 344.726 13.5396 344.676 13.5396H344.315C344.265 13.5396 344.222 13.5245 344.187 13.4944C344.157 13.4594 344.142 13.4168 344.142 13.3667V11.2017H341.526V13.3667C341.526 13.4168 341.509 13.4594 341.473 13.4944C341.438 13.5245 341.396 13.5396 341.346 13.5396H340.985ZM347.622 13.6147C347.111 13.6147 346.702 13.4569 346.397 13.1411C346.091 12.8204 345.923 12.3844 345.893 11.8331L345.885 11.5776L345.893 11.3295C345.923 10.7883 346.091 10.3573 346.397 10.0365C346.702 9.7158 347.111 9.55543 347.622 9.55543C348.173 9.55543 348.599 9.73083 348.9 10.0816C349.206 10.4324 349.358 10.9085 349.358 11.5099V11.6452C349.358 11.6953 349.341 11.7379 349.306 11.773C349.276 11.8031 349.236 11.8181 349.185 11.8181H346.577V11.8858C346.592 12.2115 346.692 12.4896 346.878 12.7202C347.063 12.9507 347.309 13.066 347.614 13.066C347.85 13.066 348.04 13.0209 348.186 12.9307C348.336 12.8354 348.449 12.7377 348.524 12.6375C348.569 12.5773 348.604 12.5423 348.629 12.5322C348.654 12.5172 348.697 12.5097 348.757 12.5097H349.088C349.133 12.5097 349.17 12.5222 349.201 12.5473C349.236 12.5723 349.253 12.6049 349.253 12.645C349.253 12.7553 349.185 12.8881 349.05 13.0434C348.915 13.1988 348.722 13.3341 348.471 13.4493C348.226 13.5596 347.943 13.6147 347.622 13.6147ZM348.674 11.3069V11.2844C348.674 10.9336 348.579 10.6479 348.389 10.4274C348.198 10.2069 347.943 10.0967 347.622 10.0967C347.296 10.0967 347.041 10.2069 346.855 10.4274C346.67 10.6479 346.577 10.9336 346.577 11.2844V11.3069H348.674ZM350.453 13.5396C350.403 13.5396 350.36 13.5245 350.325 13.4944C350.295 13.4594 350.28 13.4168 350.28 13.3667V8.37523C350.28 8.3201 350.295 8.2775 350.325 8.24743C350.36 8.21737 350.403 8.20233 350.453 8.20233H350.784C350.834 8.20233 350.874 8.21987 350.904 8.25495C350.939 8.28502 350.956 8.32511 350.956 8.37523V13.3667C350.956 13.4168 350.939 13.4594 350.904 13.4944C350.874 13.5245 350.834 13.5396 350.784 13.5396H350.453ZM352.266 14.9678C352.216 14.9678 352.173 14.9528 352.138 14.9227C352.108 14.8926 352.093 14.8501 352.093 14.7949V9.8035C352.093 9.74837 352.108 9.70577 352.138 9.6757C352.173 9.64564 352.216 9.6306 352.266 9.6306H352.582C352.637 9.6306 352.68 9.64564 352.71 9.6757C352.74 9.70577 352.755 9.74837 352.755 9.8035V10.1343C353.045 9.74837 353.459 9.55543 353.995 9.55543C354.521 9.55543 354.915 9.72331 355.175 10.0591C355.441 10.3898 355.581 10.8133 355.596 11.3295C355.601 11.3846 355.604 11.4698 355.604 11.5851C355.604 11.7003 355.601 11.7855 355.596 11.8407C355.581 12.3518 355.441 12.7753 355.175 13.1111C354.915 13.4468 354.521 13.6147 353.995 13.6147C353.459 13.6147 353.053 13.4243 352.777 13.0434V14.7949C352.777 14.845 352.76 14.8851 352.725 14.9152C352.695 14.9503 352.654 14.9678 352.604 14.9678H352.266ZM353.852 13.0284C354.213 13.0284 354.476 12.9156 354.642 12.6901C354.807 12.4646 354.897 12.1689 354.912 11.8031C354.917 11.753 354.92 11.6803 354.92 11.5851C354.92 10.6229 354.564 10.1418 353.852 10.1418C353.501 10.1418 353.236 10.2595 353.055 10.4951C352.88 10.7256 352.787 10.9987 352.777 11.3145C352.772 11.3696 352.77 11.4673 352.77 11.6076C352.77 11.7479 352.772 11.8457 352.777 11.9008C352.787 12.2065 352.882 12.4721 353.063 12.6976C353.248 12.9181 353.511 13.0284 353.852 13.0284Z" fill="#4F5665"/>
<path d="M429.026 13.6147C428.575 13.6147 428.19 13.5471 427.869 13.4118C427.548 13.2764 427.305 13.0985 427.14 12.878C426.974 12.6575 426.887 12.417 426.877 12.1564C426.877 12.1163 426.892 12.0812 426.922 12.0511C426.952 12.0161 426.989 11.9985 427.034 11.9985H427.719C427.774 11.9985 427.819 12.0111 427.854 12.0361C427.889 12.0612 427.921 12.0962 427.952 12.1413C428.002 12.3117 428.114 12.4546 428.29 12.5698C428.47 12.6851 428.716 12.7427 429.026 12.7427C429.377 12.7427 429.64 12.6851 429.816 12.5698C429.996 12.4496 430.086 12.2867 430.086 12.0812C430.086 11.9459 430.041 11.8331 429.951 11.7429C429.861 11.6527 429.723 11.5751 429.538 11.5099C429.357 11.4397 429.087 11.3571 428.726 11.2618C428.134 11.1215 427.701 10.9361 427.425 10.7056C427.15 10.475 427.012 10.1443 427.012 9.71329C427.012 9.42263 427.092 9.16453 427.252 8.93902C427.413 8.70849 427.641 8.52808 427.937 8.39778C428.237 8.26748 428.585 8.20233 428.981 8.20233C429.397 8.20233 429.756 8.275 430.056 8.42033C430.362 8.56566 430.593 8.74858 430.748 8.96909C430.908 9.18458 430.994 9.40007 431.004 9.61557C431.004 9.65566 430.988 9.69324 430.958 9.72832C430.928 9.75839 430.891 9.77343 430.846 9.77343H430.132C430.021 9.77343 429.946 9.72832 429.906 9.63812C429.881 9.47775 429.783 9.34495 429.613 9.23971C429.442 9.12945 429.232 9.07433 428.981 9.07433C428.706 9.07433 428.488 9.12695 428.327 9.23219C428.172 9.33743 428.094 9.49028 428.094 9.69074C428.094 9.82605 428.134 9.93881 428.215 10.029C428.295 10.1192 428.42 10.1994 428.591 10.2696C428.761 10.3347 429.009 10.4099 429.335 10.4951C429.781 10.5953 430.134 10.7081 430.395 10.8334C430.66 10.9586 430.856 11.1165 430.981 11.3069C431.106 11.4974 431.169 11.7404 431.169 12.0361C431.169 12.3619 431.079 12.645 430.898 12.8856C430.723 13.1211 430.472 13.3015 430.147 13.4268C429.826 13.5521 429.452 13.6147 429.026 13.6147ZM432.083 8.99164C432.033 8.99164 431.99 8.9741 431.955 8.93902C431.92 8.90394 431.902 8.86134 431.902 8.81123V8.26247C431.902 8.20734 431.92 8.16224 431.955 8.12716C431.99 8.09208 432.033 8.07454 432.083 8.07454H432.774C432.83 8.07454 432.875 8.09208 432.91 8.12716C432.945 8.16224 432.962 8.20734 432.962 8.26247V8.81123C432.962 8.86134 432.942 8.90394 432.902 8.93902C432.867 8.9741 432.825 8.99164 432.774 8.99164H432.083ZM432.113 13.5396C432.063 13.5396 432.02 13.522 431.985 13.4869C431.95 13.4518 431.932 13.4093 431.932 13.3591V9.81101C431.932 9.75589 431.95 9.71329 431.985 9.68322C432.02 9.64814 432.063 9.6306 432.113 9.6306H432.752C432.802 9.6306 432.845 9.64814 432.88 9.68322C432.915 9.7183 432.932 9.7609 432.932 9.81101V13.3591C432.932 13.4093 432.915 13.4518 432.88 13.4869C432.845 13.522 432.802 13.5396 432.752 13.5396H432.113ZM435.688 15.1933C435.242 15.1933 434.882 15.1182 434.606 14.9678C434.33 14.8225 434.135 14.6546 434.02 14.4642C433.904 14.2737 433.847 14.1109 433.847 13.9755C433.847 13.9254 433.864 13.8828 433.899 13.8478C433.934 13.8177 433.977 13.8027 434.027 13.8027H434.696C434.741 13.8027 434.779 13.8127 434.809 13.8327C434.844 13.8578 434.872 13.9004 434.892 13.9605C434.947 14.0908 435.029 14.2011 435.14 14.2913C435.25 14.3865 435.42 14.4341 435.651 14.4341C435.952 14.4341 436.172 14.3664 436.312 14.2311C436.453 14.1008 436.523 13.8703 436.523 13.5396V13.0284C436.252 13.3491 435.869 13.5095 435.373 13.5095C434.852 13.5095 434.458 13.3516 434.193 13.0359C433.932 12.7202 433.792 12.2892 433.772 11.7429L433.764 11.54L433.772 11.337C433.792 10.8008 433.934 10.3698 434.2 10.044C434.466 9.7183 434.857 9.55543 435.373 9.55543C435.638 9.55543 435.871 9.60554 436.072 9.70577C436.272 9.806 436.438 9.94131 436.568 10.1117V9.81853C436.568 9.76341 436.586 9.7183 436.621 9.68322C436.661 9.64814 436.706 9.6306 436.756 9.6306H437.372C437.422 9.6306 437.465 9.64814 437.5 9.68322C437.535 9.7183 437.553 9.76341 437.553 9.81853L437.56 13.4418C437.56 13.9981 437.405 14.4291 437.094 14.7348C436.783 15.0405 436.315 15.1933 435.688 15.1933ZM435.658 12.7127C435.939 12.7127 436.15 12.6225 436.29 12.442C436.43 12.2616 436.508 12.0411 436.523 11.7805C436.528 11.7404 436.53 11.6602 436.53 11.54C436.53 11.4197 436.528 11.3395 436.523 11.2994C436.508 11.0388 436.43 10.8183 436.29 10.6379C436.15 10.4575 435.939 10.3673 435.658 10.3673C435.117 10.3673 434.831 10.698 434.801 11.3596L434.794 11.54C434.794 12.3218 435.082 12.7127 435.658 12.7127ZM438.735 13.5396C438.684 13.5396 438.642 13.522 438.607 13.4869C438.572 13.4518 438.554 13.4093 438.554 13.3591V9.81101C438.554 9.75589 438.572 9.71329 438.607 9.68322C438.642 9.64814 438.684 9.6306 438.735 9.6306H439.358C439.414 9.6306 439.456 9.64814 439.486 9.68322C439.521 9.71329 439.539 9.75589 439.539 9.81101V10.1192C439.845 9.74336 440.263 9.55543 440.794 9.55543C441.255 9.55543 441.621 9.70577 441.892 10.0065C442.162 10.3072 442.298 10.7206 442.298 11.2468V13.3591C442.298 13.4093 442.28 13.4518 442.245 13.4869C442.215 13.522 442.172 13.5396 442.117 13.5396H441.441C441.391 13.5396 441.348 13.522 441.313 13.4869C441.278 13.4518 441.26 13.4093 441.26 13.3591V11.2919C441.26 11.0012 441.188 10.7757 441.042 10.6154C440.902 10.45 440.699 10.3673 440.433 10.3673C440.178 10.3673 439.972 10.45 439.817 10.6154C439.662 10.7807 439.584 11.0063 439.584 11.2919V13.3591C439.584 13.4093 439.566 13.4518 439.531 13.4869C439.501 13.522 439.459 13.5396 439.404 13.5396H438.735ZM445.233 13.5396C445.183 13.5396 445.141 13.522 445.106 13.4869C445.071 13.4518 445.053 13.4093 445.053 13.3591V8.45792C445.053 8.40279 445.071 8.36019 445.106 8.33012C445.141 8.29504 445.183 8.2775 445.233 8.2775H445.955C446.01 8.2775 446.053 8.29504 446.083 8.33012C446.118 8.36019 446.135 8.40279 446.135 8.45792V13.3591C446.135 13.4093 446.118 13.4518 446.083 13.4869C446.053 13.522 446.01 13.5396 445.955 13.5396H445.233ZM447.397 13.5396C447.347 13.5396 447.304 13.522 447.269 13.4869C447.234 13.4518 447.217 13.4093 447.217 13.3591V9.81101C447.217 9.75589 447.234 9.71329 447.269 9.68322C447.304 9.64814 447.347 9.6306 447.397 9.6306H448.021C448.076 9.6306 448.119 9.64814 448.149 9.68322C448.184 9.71329 448.201 9.75589 448.201 9.81101V10.1192C448.507 9.74336 448.925 9.55543 449.457 9.55543C449.918 9.55543 450.284 9.70577 450.554 10.0065C450.825 10.3072 450.96 10.7206 450.96 11.2468V13.3591C450.96 13.4093 450.943 13.4518 450.907 13.4869C450.877 13.522 450.835 13.5396 450.78 13.5396H450.103C450.053 13.5396 450.01 13.522 449.975 13.4869C449.94 13.4518 449.923 13.4093 449.923 13.3591V11.2919C449.923 11.0012 449.85 10.7757 449.705 10.6154C449.564 10.45 449.361 10.3673 449.096 10.3673C448.84 10.3673 448.635 10.45 448.479 10.6154C448.324 10.7807 448.246 11.0063 448.246 11.2919V13.3591C448.246 13.4093 448.229 13.4518 448.194 13.4869C448.164 13.522 448.121 13.5396 448.066 13.5396H447.397Z" fill="#0B132A"/>
<rect x="465.836" y="0.666553" width="70.004" height="20.6723" rx="10.3362" stroke="#F53855" stroke-width="0.469826"/>
<path d="M489.164 13.6147C488.713 13.6147 488.327 13.5471 488.006 13.4118C487.686 13.2764 487.443 13.0985 487.277 12.878C487.112 12.6575 487.024 12.417 487.014 12.1564C487.014 12.1163 487.029 12.0812 487.059 12.0511C487.089 12.0161 487.127 11.9985 487.172 11.9985H487.856C487.911 11.9985 487.956 12.0111 487.991 12.0361C488.026 12.0612 488.059 12.0962 488.089 12.1413C488.139 12.3117 488.252 12.4546 488.427 12.5698C488.608 12.6851 488.853 12.7427 489.164 12.7427C489.515 12.7427 489.778 12.6851 489.953 12.5698C490.134 12.4496 490.224 12.2867 490.224 12.0812C490.224 11.9459 490.179 11.8331 490.089 11.7429C489.998 11.6527 489.861 11.5751 489.675 11.5099C489.495 11.4397 489.224 11.3571 488.863 11.2618C488.272 11.1215 487.839 10.9361 487.563 10.7056C487.287 10.475 487.149 10.1443 487.149 9.71329C487.149 9.42263 487.23 9.16453 487.39 8.93902C487.55 8.70849 487.778 8.52808 488.074 8.39778C488.375 8.26748 488.723 8.20233 489.119 8.20233C489.535 8.20233 489.893 8.275 490.194 8.42033C490.5 8.56566 490.73 8.74858 490.886 8.96909C491.046 9.18458 491.131 9.40007 491.141 9.61557C491.141 9.65566 491.126 9.69324 491.096 9.72832C491.066 9.75839 491.028 9.77343 490.983 9.77343H490.269C490.159 9.77343 490.084 9.72832 490.044 9.63812C490.019 9.47775 489.921 9.34495 489.75 9.23971C489.58 9.12945 489.37 9.07433 489.119 9.07433C488.843 9.07433 488.625 9.12695 488.465 9.23219C488.31 9.33743 488.232 9.49028 488.232 9.69074C488.232 9.82605 488.272 9.93881 488.352 10.029C488.432 10.1192 488.558 10.1994 488.728 10.2696C488.898 10.3347 489.147 10.4099 489.472 10.4951C489.918 10.5953 490.272 10.7081 490.532 10.8334C490.798 10.9586 490.993 11.1165 491.119 11.3069C491.244 11.4974 491.306 11.7404 491.306 12.0361C491.306 12.3619 491.216 12.645 491.036 12.8856C490.86 13.1211 490.61 13.3015 490.284 13.4268C489.963 13.5521 489.59 13.6147 489.164 13.6147ZM492.22 8.99164C492.17 8.99164 492.128 8.9741 492.093 8.93902C492.058 8.90394 492.04 8.86134 492.04 8.81123V8.26247C492.04 8.20734 492.058 8.16224 492.093 8.12716C492.128 8.09208 492.17 8.07454 492.22 8.07454H492.912C492.967 8.07454 493.012 8.09208 493.047 8.12716C493.082 8.16224 493.1 8.20734 493.1 8.26247V8.81123C493.1 8.86134 493.08 8.90394 493.04 8.93902C493.005 8.9741 492.962 8.99164 492.912 8.99164H492.22ZM492.25 13.5396C492.2 13.5396 492.158 13.522 492.123 13.4869C492.088 13.4518 492.07 13.4093 492.07 13.3591V9.81101C492.07 9.75589 492.088 9.71329 492.123 9.68322C492.158 9.64814 492.2 9.6306 492.25 9.6306H492.889C492.94 9.6306 492.982 9.64814 493.017 9.68322C493.052 9.7183 493.07 9.7609 493.07 9.81101V13.3591C493.07 13.4093 493.052 13.4518 493.017 13.4869C492.982 13.522 492.94 13.5396 492.889 13.5396H492.25ZM495.826 15.1933C495.38 15.1933 495.019 15.1182 494.744 14.9678C494.468 14.8225 494.272 14.6546 494.157 14.4642C494.042 14.2737 493.984 14.1109 493.984 13.9755C493.984 13.9254 494.002 13.8828 494.037 13.8478C494.072 13.8177 494.115 13.8027 494.165 13.8027H494.834C494.879 13.8027 494.916 13.8127 494.947 13.8327C494.982 13.8578 495.009 13.9004 495.029 13.9605C495.084 14.0908 495.167 14.2011 495.277 14.2913C495.388 14.3865 495.558 14.4341 495.788 14.4341C496.089 14.4341 496.31 14.3664 496.45 14.2311C496.59 14.1008 496.66 13.8703 496.66 13.5396V13.0284C496.39 13.3491 496.006 13.5095 495.51 13.5095C494.989 13.5095 494.596 13.3516 494.33 13.0359C494.07 12.7202 493.929 12.2892 493.909 11.7429L493.902 11.54L493.909 11.337C493.929 10.8008 494.072 10.3698 494.338 10.044C494.603 9.7183 494.994 9.55543 495.51 9.55543C495.776 9.55543 496.009 9.60554 496.209 9.70577C496.41 9.806 496.575 9.94131 496.706 10.1117V9.81853C496.706 9.76341 496.723 9.7183 496.758 9.68322C496.798 9.64814 496.843 9.6306 496.893 9.6306H497.51C497.56 9.6306 497.603 9.64814 497.638 9.68322C497.673 9.7183 497.69 9.76341 497.69 9.81853L497.698 13.4418C497.698 13.9981 497.542 14.4291 497.232 14.7348C496.921 15.0405 496.452 15.1933 495.826 15.1933ZM495.796 12.7127C496.077 12.7127 496.287 12.6225 496.427 12.442C496.568 12.2616 496.645 12.0411 496.66 11.7805C496.665 11.7404 496.668 11.6602 496.668 11.54C496.668 11.4197 496.665 11.3395 496.66 11.2994C496.645 11.0388 496.568 10.8183 496.427 10.6379C496.287 10.4575 496.077 10.3673 495.796 10.3673C495.255 10.3673 494.969 10.698 494.939 11.3596L494.931 11.54C494.931 12.3218 495.22 12.7127 495.796 12.7127ZM498.872 13.5396C498.822 13.5396 498.779 13.522 498.744 13.4869C498.709 13.4518 498.692 13.4093 498.692 13.3591V9.81101C498.692 9.75589 498.709 9.71329 498.744 9.68322C498.779 9.64814 498.822 9.6306 498.872 9.6306H499.496C499.551 9.6306 499.594 9.64814 499.624 9.68322C499.659 9.71329 499.676 9.75589 499.676 9.81101V10.1192C499.982 9.74336 500.401 9.55543 500.932 9.55543C501.393 9.55543 501.759 9.70577 502.029 10.0065C502.3 10.3072 502.435 10.7206 502.435 11.2468V13.3591C502.435 13.4093 502.418 13.4518 502.383 13.4869C502.353 13.522 502.31 13.5396 502.255 13.5396H501.578C501.528 13.5396 501.486 13.522 501.45 13.4869C501.415 13.4518 501.398 13.4093 501.398 13.3591V11.2919C501.398 11.0012 501.325 10.7757 501.18 10.6154C501.04 10.45 500.837 10.3673 500.571 10.3673C500.315 10.3673 500.11 10.45 499.955 10.6154C499.799 10.7807 499.722 11.0063 499.722 11.2919V13.3591C499.722 13.4093 499.704 13.4518 499.669 13.4869C499.639 13.522 499.596 13.5396 499.541 13.5396H498.872ZM507.295 13.6147C506.614 13.6147 506.085 13.4418 505.709 13.096C505.333 12.7502 505.145 12.2265 505.145 11.5249V8.46543C505.145 8.41031 505.161 8.3652 505.191 8.33012C505.226 8.29504 505.271 8.2775 505.326 8.2775H506.017C506.073 8.2775 506.118 8.29504 506.153 8.33012C506.188 8.3652 506.205 8.41031 506.205 8.46543V11.5249C506.205 11.9208 506.298 12.219 506.484 12.4195C506.674 12.6199 506.942 12.7202 507.288 12.7202C507.634 12.7202 507.899 12.6199 508.085 12.4195C508.275 12.219 508.37 11.9208 508.37 11.5249V8.46543C508.37 8.41031 508.388 8.3652 508.423 8.33012C508.458 8.29504 508.503 8.2775 508.558 8.2775H509.25C509.305 8.2775 509.348 8.29504 509.378 8.33012C509.413 8.3652 509.43 8.41031 509.43 8.46543V11.5249C509.43 12.2265 509.242 12.7502 508.867 13.096C508.496 13.4418 507.972 13.6147 507.295 13.6147ZM510.655 14.9678C510.604 14.9678 510.562 14.9503 510.527 14.9152C510.492 14.8851 510.474 14.8425 510.474 14.7874V9.81101C510.474 9.75589 510.492 9.71329 510.527 9.68322C510.562 9.64814 510.604 9.6306 510.655 9.6306H511.256C511.311 9.6306 511.356 9.64814 511.391 9.68322C511.426 9.7183 511.444 9.7609 511.444 9.81101V10.1117C511.71 9.74085 512.108 9.55543 512.639 9.55543C513.145 9.55543 513.534 9.7158 513.804 10.0365C514.075 10.3523 514.22 10.7782 514.24 11.3145C514.245 11.3746 514.248 11.4648 514.248 11.5851C514.248 11.7054 514.245 11.7956 514.24 11.8557C514.225 12.3819 514.08 12.8079 513.804 13.1336C513.534 13.4544 513.145 13.6147 512.639 13.6147C512.138 13.6147 511.755 13.4368 511.489 13.081V14.7874C511.489 14.8425 511.471 14.8851 511.436 14.9152C511.406 14.9503 511.364 14.9678 511.309 14.9678H510.655ZM512.353 12.8029C512.89 12.8029 513.175 12.4721 513.21 11.8106C513.215 11.7605 513.218 11.6853 513.218 11.5851C513.218 11.4848 513.215 11.4097 513.21 11.3596C513.175 10.698 512.89 10.3673 512.353 10.3673C512.068 10.3673 511.855 10.46 511.715 10.6454C511.574 10.8308 511.499 11.0564 511.489 11.322C511.484 11.3821 511.481 11.4773 511.481 11.6076C511.481 11.7379 511.484 11.8356 511.489 11.9008C511.499 12.1514 511.577 12.3644 511.722 12.5398C511.867 12.7152 512.078 12.8029 512.353 12.8029Z" fill="#F53855"/>
</svg>
